<svg xmlns="http://www.w3.org/2000/svg" xmlns:xlink="http://www.w3.org/1999/xlink" width="2323" zoomAndPan="magnify" viewBox="0 0 1742.25 323.999988" height="432" preserveAspectRatio="xMidYMid meet" version="1.0"><defs><clipPath id="878ec8bcd0"><path d="M 202 166 L 247 166 L 247 323.929688 L 202 323.929688 Z M 202 166 " clip-rule="nonzero"/></clipPath><clipPath id="1fb81e4678"><path d="M 201 0.0703125 L 344 0.0703125 L 344 323.929688 L 201 323.929688 Z M 201 0.0703125 " clip-rule="nonzero"/></clipPath><clipPath id="0889455399"><path d="M 178 201 L 232 201 L 232 323.929688 L 178 323.929688 Z M 178 201 " clip-rule="nonzero"/></clipPath><clipPath id="2b6b4fa9a9"><path d="M 147 34 L 260 34 L 260 323.929688 L 147 323.929688 Z M 147 34 " clip-rule="nonzero"/></clipPath><clipPath id="3008b60035"><path d="M 87 123 L 148 123 L 148 323.929688 L 87 323.929688 Z M 87 123 " clip-rule="nonzero"/></clipPath><clipPath id="1f93756bd0"><path d="M 60 197 L 113 197 L 113 323.929688 L 60 323.929688 Z M 60 197 " clip-rule="nonzero"/></clipPath><clipPath id="95a969435f"><path d="M 76 145 L 126 145 L 126 323.929688 L 76 323.929688 Z M 76 145 " clip-rule="nonzero"/></clipPath><clipPath id="7a875c8acd"><path d="M 95 68 L 201 68 L 201 323.929688 L 95 323.929688 Z M 95 68 " clip-rule="nonzero"/></clipPath><clipPath id="c6a9060117"><path d="M 144 19 L 305 19 L 305 323.929688 L 144 323.929688 Z M 144 19 " clip-rule="nonzero"/></clipPath><clipPath id="306621fdb7"><path d="M 219 98 L 370 98 L 370 323.929688 L 219 323.929688 Z M 219 98 " clip-rule="nonzero"/></clipPath><clipPath id="312da1e17b"><path d="M 120 150 L 214 150 L 214 323.929688 L 120 323.929688 Z M 120 150 " clip-rule="nonzero"/></clipPath><clipPath id="b92faf72c4"><path d="M 0 161 L 102 161 L 102 323.929688 L 0 323.929688 Z M 0 161 " clip-rule="nonzero"/></clipPath><clipPath id="c270099785"><path d="M 78 96 L 120 96 L 120 323.929688 L 78 323.929688 Z M 78 96 " clip-rule="nonzero"/></clipPath><clipPath id="bc2ab8e489"><path d="M 347 0.0703125 L 490 0.0703125 L 490 323.929688 L 347 323.929688 Z M 347 0.0703125 " clip-rule="nonzero"/></clipPath><clipPath id="6a5e0b7205"><path d="M 325 201 L 378 201 L 378 323.929688 L 325 323.929688 Z M 325 201 " clip-rule="nonzero"/></clipPath><clipPath id="aa39f2c528"><path d="M 348 166 L 393 166 L 393 323.929688 L 348 323.929688 Z M 348 166 " clip-rule="nonzero"/></clipPath><clipPath id="54024cd147"><path d="M 313 181 L 372 181 L 372 323.929688 L 313 323.929688 Z M 313 181 " clip-rule="nonzero"/></clipPath><clipPath id="bcb57a0d05"><path d="M 298 123 L 355 123 L 355 323.929688 L 298 323.929688 Z M 298 123 " clip-rule="nonzero"/></clipPath><clipPath id="320b00879f"><path d="M 150 0.0703125 L 275 0.0703125 L 275 323.929688 L 150 323.929688 Z M 150 0.0703125 " clip-rule="nonzero"/></clipPath><clipPath id="80bc8d6af9"><path d="M 274 99 L 342 99 L 342 323.929688 L 274 323.929688 Z M 274 99 " clip-rule="nonzero"/></clipPath><clipPath id="f3f2269cc3"><path d="M 290 19 L 452 19 L 452 323.929688 L 290 323.929688 Z M 290 19 " clip-rule="nonzero"/></clipPath><clipPath id="519869ba93"><path d="M 241 68 L 347 68 L 347 323.929688 L 241 323.929688 Z M 241 68 " clip-rule="nonzero"/></clipPath><clipPath id="b8e12aafc9"><path d="M 365 98 L 512.03125 98 L 512.03125 323.929688 L 365 323.929688 Z M 365 98 " clip-rule="nonzero"/></clipPath><clipPath id="184d79d117"><path d="M 266 150 L 360 150 L 360 323.929688 L 266 323.929688 Z M 266 150 " clip-rule="nonzero"/></clipPath><clipPath id="6aad0abd1c"><path d="M 146 161 L 248 161 L 248 323.929688 L 146 323.929688 Z M 146 161 " clip-rule="nonzero"/></clipPath><clipPath id="011cb29e7d"><path d="M 225 96 L 267 96 L 267 323.929688 L 225 323.929688 Z M 225 96 " clip-rule="nonzero"/></clipPath><clipPath id="b600001797"><path d="M 561 166 L 606 166 L 606 323.929688 L 561 323.929688 Z M 561 166 " clip-rule="nonzero"/></clipPath><clipPath id="c9db92f01d"><path d="M 560 0.0703125 L 703 0.0703125 L 703 323.929688 L 560 323.929688 Z M 560 0.0703125 " clip-rule="nonzero"/></clipPath><clipPath id="4cf720b5c7"><path d="M 537 201 L 591 201 L 591 323.929688 L 537 323.929688 Z M 537 201 " clip-rule="nonzero"/></clipPath><clipPath id="fbca7157ee"><path d="M 506 34 L 619 34 L 619 323.929688 L 506 323.929688 Z M 506 34 " clip-rule="nonzero"/></clipPath><clipPath id="5feeec80a0"><path d="M 446 123 L 507 123 L 507 323.929688 L 446 323.929688 Z M 446 123 " clip-rule="nonzero"/></clipPath><clipPath id="6d60d355df"><path d="M 420 197 L 472 197 L 472 323.929688 L 420 323.929688 Z M 420 197 " clip-rule="nonzero"/></clipPath><clipPath id="54c628d02f"><path d="M 435 145 L 485 145 L 485 323.929688 L 435 323.929688 Z M 435 145 " clip-rule="nonzero"/></clipPath><clipPath id="4181aed3f5"><path d="M 454 68 L 560 68 L 560 323.929688 L 454 323.929688 Z M 454 68 " clip-rule="nonzero"/></clipPath><clipPath id="84344d7fce"><path d="M 503 19 L 664 19 L 664 323.929688 L 503 323.929688 Z M 503 19 " clip-rule="nonzero"/></clipPath><clipPath id="f067b48d2f"><path d="M 578 98 L 729 98 L 729 323.929688 L 578 323.929688 Z M 578 98 " clip-rule="nonzero"/></clipPath><clipPath id="2c32ce919e"><path d="M 479 150 L 573 150 L 573 323.929688 L 479 323.929688 Z M 479 150 " clip-rule="nonzero"/></clipPath><clipPath id="bf0d367c22"><path d="M 359.117188 161 L 461 161 L 461 323.929688 L 359.117188 323.929688 Z M 359.117188 161 " clip-rule="nonzero"/></clipPath><clipPath id="ae15af6220"><path d="M 437 96 L 480 96 L 480 323.929688 L 437 323.929688 Z M 437 96 " clip-rule="nonzero"/></clipPath><clipPath id="0a48fe163b"><path d="M 706 0.0703125 L 850 0.0703125 L 850 323.929688 L 706 323.929688 Z M 706 0.0703125 " clip-rule="nonzero"/></clipPath><clipPath id="4df6dafffe"><path d="M 684 201 L 737 201 L 737 323.929688 L 684 323.929688 Z M 684 201 " clip-rule="nonzero"/></clipPath><clipPath id="1cbaad12c5"><path d="M 707 166 L 752 166 L 752 323.929688 L 707 323.929688 Z M 707 166 " clip-rule="nonzero"/></clipPath><clipPath id="564eb93f6b"><path d="M 672 181 L 731 181 L 731 323.929688 L 672 323.929688 Z M 672 181 " clip-rule="nonzero"/></clipPath><clipPath id="5a3cc3f22a"><path d="M 658 123 L 714 123 L 714 323.929688 L 658 323.929688 Z M 658 123 " clip-rule="nonzero"/></clipPath><clipPath id="2a64302b4d"><path d="M 509 0.0703125 L 634 0.0703125 L 634 323.929688 L 509 323.929688 Z M 509 0.0703125 " clip-rule="nonzero"/></clipPath><clipPath id="df0d9b0a65"><path d="M 633 99 L 702 99 L 702 323.929688 L 633 323.929688 Z M 633 99 " clip-rule="nonzero"/></clipPath><clipPath id="6e1d224768"><path d="M 649 19 L 811 19 L 811 323.929688 L 649 323.929688 Z M 649 19 " clip-rule="nonzero"/></clipPath><clipPath id="9e42028bd0"><path d="M 600 68 L 707 68 L 707 323.929688 L 600 323.929688 Z M 600 68 " clip-rule="nonzero"/></clipPath><clipPath id="ea4378c892"><path d="M 724 98 L 871.148438 98 L 871.148438 323.929688 L 724 323.929688 Z M 724 98 " clip-rule="nonzero"/></clipPath><clipPath id="fde93d3e64"><path d="M 625 150 L 720 150 L 720 323.929688 L 625 323.929688 Z M 625 150 " clip-rule="nonzero"/></clipPath><clipPath id="f2a27d96a6"><path d="M 505 161 L 607 161 L 607 323.929688 L 505 323.929688 Z M 505 161 " clip-rule="nonzero"/></clipPath><clipPath id="42fd85db0e"><path d="M 584 96 L 626 96 L 626 323.929688 L 584 323.929688 Z M 584 96 " clip-rule="nonzero"/></clipPath><clipPath id="c2485d7aa0"><path d="M 881 166 L 926 166 L 926 323.929688 L 881 323.929688 Z M 881 166 " clip-rule="nonzero"/></clipPath><clipPath id="6308e365d2"><path d="M 880 0.0703125 L 1023 0.0703125 L 1023 323.929688 L 880 323.929688 Z M 880 0.0703125 " clip-rule="nonzero"/></clipPath><clipPath id="a5b74d7ab4"><path d="M 858 201 L 911 201 L 911 323.929688 L 858 323.929688 Z M 858 201 " clip-rule="nonzero"/></clipPath><clipPath id="bb25fc7101"><path d="M 827 34 L 939 34 L 939 323.929688 L 827 323.929688 Z M 827 34 " clip-rule="nonzero"/></clipPath><clipPath id="2d9de4c031"><path d="M 766 123 L 827 123 L 827 323.929688 L 766 323.929688 Z M 766 123 " clip-rule="nonzero"/></clipPath><clipPath id="49ae5f1e06"><path d="M 740 197 L 792 197 L 792 323.929688 L 740 323.929688 Z M 740 197 " clip-rule="nonzero"/></clipPath><clipPath id="76c3c92655"><path d="M 755 145 L 806 145 L 806 323.929688 L 755 323.929688 Z M 755 145 " clip-rule="nonzero"/></clipPath><clipPath id="b46fe1a989"><path d="M 774 68 L 880 68 L 880 323.929688 L 774 323.929688 Z M 774 68 " clip-rule="nonzero"/></clipPath><clipPath id="a99352ba65"><path d="M 823 19 L 985 19 L 985 323.929688 L 823 323.929688 Z M 823 19 " clip-rule="nonzero"/></clipPath><clipPath id="0b82fad853"><path d="M 898 98 L 1049 98 L 1049 323.929688 L 898 323.929688 Z M 898 98 " clip-rule="nonzero"/></clipPath><clipPath id="b9d9cb8cc6"><path d="M 799 150 L 894 150 L 894 323.929688 L 799 323.929688 Z M 799 150 " clip-rule="nonzero"/></clipPath><clipPath id="3660800003"><path d="M 679.210938 161 L 781 161 L 781 323.929688 L 679.210938 323.929688 Z M 679.210938 161 " clip-rule="nonzero"/></clipPath><clipPath id="664ac60e42"><path d="M 758 96 L 800 96 L 800 323.929688 L 758 323.929688 Z M 758 96 " clip-rule="nonzero"/></clipPath><clipPath id="1c0551fbe7"><path d="M 1026 0.0703125 L 1170 0.0703125 L 1170 323.929688 L 1026 323.929688 Z M 1026 0.0703125 " clip-rule="nonzero"/></clipPath><clipPath id="dc1dcabba4"><path d="M 1004 201 L 1057 201 L 1057 323.929688 L 1004 323.929688 Z M 1004 201 " clip-rule="nonzero"/></clipPath><clipPath id="bcd47edd38"><path d="M 1027 166 L 1072 166 L 1072 323.929688 L 1027 323.929688 Z M 1027 166 " clip-rule="nonzero"/></clipPath><clipPath id="e3271e644b"><path d="M 992 181 L 1051 181 L 1051 323.929688 L 992 323.929688 Z M 992 181 " clip-rule="nonzero"/></clipPath><clipPath id="e76f3ffd7e"><path d="M 978 123 L 1034 123 L 1034 323.929688 L 978 323.929688 Z M 978 123 " clip-rule="nonzero"/></clipPath><clipPath id="6b140805ab"><path d="M 829 0.0703125 L 954 0.0703125 L 954 323.929688 L 829 323.929688 Z M 829 0.0703125 " clip-rule="nonzero"/></clipPath><clipPath id="b529d7914f"><path d="M 953 99 L 1022 99 L 1022 323.929688 L 953 323.929688 Z M 953 99 " clip-rule="nonzero"/></clipPath><clipPath id="c17e35d469"><path d="M 969 19 L 1131 19 L 1131 323.929688 L 969 323.929688 Z M 969 19 " clip-rule="nonzero"/></clipPath><clipPath id="2839fdcdf6"><path d="M 920 68 L 1027 68 L 1027 323.929688 L 920 323.929688 Z M 920 68 " clip-rule="nonzero"/></clipPath><clipPath id="4d4f6bd326"><path d="M 1045 98 L 1191.242188 98 L 1191.242188 323.929688 L 1045 323.929688 Z M 1045 98 " clip-rule="nonzero"/></clipPath><clipPath id="ecc7281197"><path d="M 945 150 L 1040 150 L 1040 323.929688 L 945 323.929688 Z M 945 150 " clip-rule="nonzero"/></clipPath><clipPath id="ddf867382e"><path d="M 825 161 L 927 161 L 927 323.929688 L 825 323.929688 Z M 825 161 " clip-rule="nonzero"/></clipPath><clipPath id="2f2b15cad6"><path d="M 904 96 L 946 96 L 946 323.929688 L 904 323.929688 Z M 904 96 " clip-rule="nonzero"/></clipPath><clipPath id="4b0996d256"><path d="M 1215 166 L 1260 166 L 1260 323.929688 L 1215 323.929688 Z M 1215 166 " clip-rule="nonzero"/></clipPath><clipPath id="8b333c90ed"><path d="M 1214 0.0703125 L 1357 0.0703125 L 1357 323.929688 L 1214 323.929688 Z M 1214 0.0703125 " clip-rule="nonzero"/></clipPath><clipPath id="9ceeb41c15"><path d="M 1191 201 L 1245 201 L 1245 323.929688 L 1191 323.929688 Z M 1191 201 " clip-rule="nonzero"/></clipPath><clipPath id="a75733e816"><path d="M 1160 34 L 1273 34 L 1273 323.929688 L 1160 323.929688 Z M 1160 34 " clip-rule="nonzero"/></clipPath><clipPath id="811574ac3f"><path d="M 1100 123 L 1161 123 L 1161 323.929688 L 1100 323.929688 Z M 1100 123 " clip-rule="nonzero"/></clipPath><clipPath id="8463687253"><path d="M 1073 197 L 1126 197 L 1126 323.929688 L 1073 323.929688 Z M 1073 197 " clip-rule="nonzero"/></clipPath><clipPath id="87c6c6d732"><path d="M 1089 145 L 1139 145 L 1139 323.929688 L 1089 323.929688 Z M 1089 145 " clip-rule="nonzero"/></clipPath><clipPath id="39adc22a33"><path d="M 1108 68 L 1214 68 L 1214 323.929688 L 1108 323.929688 Z M 1108 68 " clip-rule="nonzero"/></clipPath><clipPath id="32ffe57c43"><path d="M 1157 19 L 1318 19 L 1318 323.929688 L 1157 323.929688 Z M 1157 19 " clip-rule="nonzero"/></clipPath><clipPath id="ad6a40396f"><path d="M 1232 98 L 1383 98 L 1383 323.929688 L 1232 323.929688 Z M 1232 98 " clip-rule="nonzero"/></clipPath><clipPath id="8662075819"><path d="M 1133 150 L 1227 150 L 1227 323.929688 L 1133 323.929688 Z M 1133 150 " clip-rule="nonzero"/></clipPath><clipPath id="e4463968d8"><path d="M 1012.886719 161 L 1115 161 L 1115 323.929688 L 1012.886719 323.929688 Z M 1012.886719 161 " clip-rule="nonzero"/></clipPath><clipPath id="4b7ff4bcfa"><path d="M 1091 96 L 1133 96 L 1133 323.929688 L 1091 323.929688 Z M 1091 96 " clip-rule="nonzero"/></clipPath><clipPath id="3e191e6a5c"><path d="M 1360 0.0703125 L 1503 0.0703125 L 1503 323.929688 L 1360 323.929688 Z M 1360 0.0703125 " clip-rule="nonzero"/></clipPath><clipPath id="6d50f0d5e1"><path d="M 1337 201 L 1391 201 L 1391 323.929688 L 1337 323.929688 Z M 1337 201 " clip-rule="nonzero"/></clipPath><clipPath id="0868782376"><path d="M 1361 166 L 1406 166 L 1406 323.929688 L 1361 323.929688 Z M 1361 166 " clip-rule="nonzero"/></clipPath><clipPath id="020c071839"><path d="M 1326 181 L 1385 181 L 1385 323.929688 L 1326 323.929688 Z M 1326 181 " clip-rule="nonzero"/></clipPath><clipPath id="73ba8cab46"><path d="M 1311 123 L 1368 123 L 1368 323.929688 L 1311 323.929688 Z M 1311 123 " clip-rule="nonzero"/></clipPath><clipPath id="d87f3fff25"><path d="M 1163 0.0703125 L 1288 0.0703125 L 1288 323.929688 L 1163 323.929688 Z M 1163 0.0703125 " clip-rule="nonzero"/></clipPath><clipPath id="65780d973d"><path d="M 1287 99 L 1355 99 L 1355 323.929688 L 1287 323.929688 Z M 1287 99 " clip-rule="nonzero"/></clipPath><clipPath id="84ba4139e4"><path d="M 1303 19 L 1464 19 L 1464 323.929688 L 1303 323.929688 Z M 1303 19 " clip-rule="nonzero"/></clipPath><clipPath id="da4cae3e67"><path d="M 1254 68 L 1360 68 L 1360 323.929688 L 1254 323.929688 Z M 1254 68 " clip-rule="nonzero"/></clipPath><clipPath id="5ef8168818"><path d="M 1378 98 L 1524.917969 98 L 1524.917969 323.929688 L 1378 323.929688 Z M 1378 98 " clip-rule="nonzero"/></clipPath><clipPath id="54a39ba00d"><path d="M 1279 150 L 1373 150 L 1373 323.929688 L 1279 323.929688 Z M 1279 150 " clip-rule="nonzero"/></clipPath><clipPath id="fed692fa9e"><path d="M 1159 161 L 1261 161 L 1261 323.929688 L 1159 323.929688 Z M 1159 161 " clip-rule="nonzero"/></clipPath><clipPath id="9800f0cab2"><path d="M 1237 96 L 1279 96 L 1279 323.929688 L 1237 323.929688 Z M 1237 96 " clip-rule="nonzero"/></clipPath><clipPath id="e1febdc69b"><path d="M 1431 166 L 1476 166 L 1476 323.929688 L 1431 323.929688 Z M 1431 166 " clip-rule="nonzero"/></clipPath><clipPath id="8f1b4fbe97"><path d="M 1430 0.0703125 L 1574 0.0703125 L 1574 323.929688 L 1430 323.929688 Z M 1430 0.0703125 " clip-rule="nonzero"/></clipPath><clipPath id="912f7872bd"><path d="M 1408 201 L 1461 201 L 1461 323.929688 L 1408 323.929688 Z M 1408 201 " clip-rule="nonzero"/></clipPath><clipPath id="a91011b73f"><path d="M 1377 34 L 1489 34 L 1489 323.929688 L 1377 323.929688 Z M 1377 34 " clip-rule="nonzero"/></clipPath><clipPath id="77fd709662"><path d="M 1316 123 L 1377 123 L 1377 323.929688 L 1316 323.929688 Z M 1316 123 " clip-rule="nonzero"/></clipPath><clipPath id="30c37f0875"><path d="M 1290 197 L 1343 197 L 1343 323.929688 L 1290 323.929688 Z M 1290 197 " clip-rule="nonzero"/></clipPath><clipPath id="7d331827e0"><path d="M 1305 145 L 1356 145 L 1356 323.929688 L 1305 323.929688 Z M 1305 145 " clip-rule="nonzero"/></clipPath><clipPath id="952d166fd8"><path d="M 1324 68 L 1431 68 L 1431 323.929688 L 1324 323.929688 Z M 1324 68 " clip-rule="nonzero"/></clipPath><clipPath id="e24760cdb2"><path d="M 1373 19 L 1535 19 L 1535 323.929688 L 1373 323.929688 Z M 1373 19 " clip-rule="nonzero"/></clipPath><clipPath id="a6026cf0dc"><path d="M 1448 98 L 1599 98 L 1599 323.929688 L 1448 323.929688 Z M 1448 98 " clip-rule="nonzero"/></clipPath><clipPath id="b541884bb2"><path d="M 1349 150 L 1444 150 L 1444 323.929688 L 1349 323.929688 Z M 1349 150 " clip-rule="nonzero"/></clipPath><clipPath id="dbdb2faefc"><path d="M 1229.335938 161 L 1331 161 L 1331 323.929688 L 1229.335938 323.929688 Z M 1229.335938 161 " clip-rule="nonzero"/></clipPath><clipPath id="796f8a5241"><path d="M 1308 96 L 1350 96 L 1350 323.929688 L 1308 323.929688 Z M 1308 96 " clip-rule="nonzero"/></clipPath><clipPath id="f0e7e12b70"><path d="M 1576 0.0703125 L 1720 0.0703125 L 1720 323.929688 L 1576 323.929688 Z M 1576 0.0703125 " clip-rule="nonzero"/></clipPath><clipPath id="022395110a"><path d="M 1554 201 L 1608 201 L 1608 323.929688 L 1554 323.929688 Z M 1554 201 " clip-rule="nonzero"/></clipPath><clipPath id="5fbf498f21"><path d="M 1578 166 L 1622 166 L 1622 323.929688 L 1578 323.929688 Z M 1578 166 " clip-rule="nonzero"/></clipPath><clipPath id="4ff34fd73a"><path d="M 1542 181 L 1601 181 L 1601 323.929688 L 1542 323.929688 Z M 1542 181 " clip-rule="nonzero"/></clipPath><clipPath id="470274d5a1"><path d="M 1528 123 L 1584 123 L 1584 323.929688 L 1528 323.929688 Z M 1528 123 " clip-rule="nonzero"/></clipPath><clipPath id="268025bbcd"><path d="M 1379 0.0703125 L 1504 0.0703125 L 1504 323.929688 L 1379 323.929688 Z M 1379 0.0703125 " clip-rule="nonzero"/></clipPath><clipPath id="fb76519756"><path d="M 1504 99 L 1572 99 L 1572 323.929688 L 1504 323.929688 Z M 1504 99 " clip-rule="nonzero"/></clipPath><clipPath id="80a389841e"><path d="M 1520 19 L 1681 19 L 1681 323.929688 L 1520 323.929688 Z M 1520 19 " clip-rule="nonzero"/></clipPath><clipPath id="a0dd250c1e"><path d="M 1471 68 L 1577 68 L 1577 323.929688 L 1471 323.929688 Z M 1471 68 " clip-rule="nonzero"/></clipPath><clipPath id="54269d5889"><path d="M 1595 98 L 1741.363281 98 L 1741.363281 323.929688 L 1595 323.929688 Z M 1595 98 " clip-rule="nonzero"/></clipPath><clipPath id="3352734906"><path d="M 1495 150 L 1590 150 L 1590 323.929688 L 1495 323.929688 Z M 1495 150 " clip-rule="nonzero"/></clipPath><clipPath id="ff8bbe4886"><path d="M 1375 161 L 1477 161 L 1477 323.929688 L 1375 323.929688 Z M 1375 161 " clip-rule="nonzero"/></clipPath><clipPath id="d2216e5884"><path d="M 1454 96 L 1496 96 L 1496 323.929688 L 1454 323.929688 Z M 1454 96 " clip-rule="nonzero"/></clipPath></defs><g clip-path="url(#878ec8bcd0)"><path fill="#12302e" d="M 202.566406 166.988281 C 214.816406 201.671875 230.578125 282.53125 231.550781 325.710938 L 246.253906 325.710938 C 240.160156 257.800781 235.238281 223.566406 202.566406 166.988281 " fill-opacity="1" fill-rule="nonzero"/></g><g clip-path="url(#1fb81e4678)"><path fill="#12302e" d="M 246.285156 325.710938 L 304.425781 325.710938 C 308.863281 249.101562 343.789062 215.710938 343.789062 215.710938 C 304.351562 245.714844 301.953125 267.6875 292.253906 323.96875 C 274.484375 222.285156 317.226562 23.882812 328.292969 0.386719 C 313.445312 15.179688 272.289062 185.585938 269.007812 271.132812 C 269.257812 278.636719 269.128906 315.523438 268.957031 323.027344 C 269.183594 313.007812 267.597656 303.152344 267.257812 293.195312 C 266.527344 272.167969 264.199219 251.839844 261.832031 231.140625 C 259.902344 214.261719 257.980469 196.902344 253.789062 180.929688 C 244.355469 144.984375 224.191406 116.644531 201.488281 99.707031 C 237.589844 152.175781 254.660156 249.050781 246.285156 325.710938 " fill-opacity="1" fill-rule="nonzero"/></g><g clip-path="url(#0889455399)"><path fill="#12302e" d="M 231.527344 325.710938 C 212.253906 230.097656 178.875 201.707031 178.875 201.707031 C 195.632812 238.511719 215.957031 297.476562 218.847656 325.710938 L 231.527344 325.710938 " fill-opacity="1" fill-rule="nonzero"/></g><g clip-path="url(#2b6b4fa9a9)"><path fill="#120e0f" d="M 178.335938 325.710938 C 174.667969 265 259.1875 149.484375 259.1875 149.484375 C 240.195312 161.507812 178.742188 253.640625 170.136719 303.585938 C 154.183594 212.320312 191.164062 55.605469 201.097656 34.515625 C 148.3125 115.144531 147.574219 286.683594 147.859375 325.710938 L 178.335938 325.710938 " fill-opacity="1" fill-rule="nonzero"/></g><g clip-path="url(#3008b60035)"><path fill="#120e0f" d="M 126.011719 325.710938 L 147.527344 325.710938 C 146.335938 300.554688 142.722656 224.171875 137.28125 201.644531 C 126.363281 156.410156 107.660156 138.867188 87.285156 123.664062 C 136.148438 197.402344 133.480469 257.289062 126.011719 325.710938 " fill-opacity="1" fill-rule="nonzero"/></g><g clip-path="url(#1f93756bd0)"><path fill="#120e0f" d="M 98.933594 325.710938 L 112.757812 325.710938 C 106.082031 288.253906 105.695312 232.597656 60.914062 197.386719 C 89.453125 231.988281 95.132812 273.511719 98.933594 325.710938 " fill-opacity="1" fill-rule="nonzero"/></g><g clip-path="url(#95a969435f)"><path fill="#120e0f" d="M 113.300781 325.710938 L 125.867188 325.710938 C 122.570312 241.050781 129.882812 204.347656 76.292969 145.425781 C 94.195312 175.707031 115.703125 198.105469 113.300781 325.710938 " fill-opacity="1" fill-rule="nonzero"/></g><g clip-path="url(#7a875c8acd)"><path fill="#120e0f" d="M 178.085938 325.710938 L 200.722656 325.710938 C 200.578125 323.484375 200.242188 321.128906 200.140625 319.292969 C 199.675781 311.066406 199.152344 302.851562 198.558594 294.644531 C 195.589844 253.746094 190.707031 211.210938 177.527344 174.832031 C 167.855469 148.140625 154.324219 125.085938 138.683594 106.324219 C 127.789062 93.257812 115.867188 82.105469 103.296875 73.261719 C 100.789062 71.5 98.257812 69.832031 95.6875 68.292969 C 95.519531 68.191406 95.445312 68.503906 95.589844 68.671875 C 172.46875 159.050781 177.972656 292.199219 178.085938 325.710938 " fill-opacity="1" fill-rule="nonzero"/></g><g clip-path="url(#c6a9060117)"><path fill="#12302e" d="M 201.089844 325.710938 L 232.835938 325.710938 C 237.910156 113.308594 304.878906 42.847656 304.878906 42.847656 C 213.589844 94.621094 222.75 325.273438 222.75 325.273438 C 204.234375 123.792969 180.453125 56.03125 144.761719 19.65625 C 144.617188 19.507812 144.441406 19.730469 144.550781 19.933594 C 198.664062 119.828125 205.617188 277.480469 201.089844 325.710938 " fill-opacity="1" fill-rule="nonzero"/></g><g clip-path="url(#306621fdb7)"><path fill="#12302e" d="M 219.824219 100.046875 C 282.207031 138.363281 274.851562 293.34375 272.59375 325.710938 L 294.800781 325.710938 C 295.414062 124.171875 369.191406 136.960938 369.191406 136.960938 C 290.332031 77.34375 283.660156 297.191406 283.660156 297.191406 C 284.261719 82.929688 215.839844 97.597656 219.824219 100.046875 " fill-opacity="1" fill-rule="nonzero"/></g><g clip-path="url(#312da1e17b)"><path fill="#12302e" d="M 131.332031 325.710938 C 145.425781 215.160156 213.835938 150.933594 213.835938 150.933594 C 138.777344 193.269531 122.933594 301.199219 120.261719 325.710938 L 131.332031 325.710938 " fill-opacity="1" fill-rule="nonzero"/></g><g clip-path="url(#b92faf72c4)"><path fill="#053331" d="M 89.617188 325.710938 L 101.417969 325.710938 C 74.242188 144.117188 0 162.191406 0 162.191406 C 78.347656 200.117188 88.371094 297.339844 89.617188 325.710938 " fill-opacity="1" fill-rule="nonzero"/></g><g clip-path="url(#c270099785)"><path fill="#12302e" d="M 102.769531 325.710938 L 119.894531 325.710938 C 121.542969 213.496094 78.863281 96.980469 78.863281 96.980469 C 108.664062 254.695312 104.851562 311.289062 102.769531 325.710938 " fill-opacity="1" fill-rule="nonzero"/></g><g clip-path="url(#bc2ab8e489)"><path fill="#12302e" d="M 392.449219 325.710938 L 450.585938 325.710938 C 455.027344 249.101562 489.949219 215.710938 489.949219 215.710938 C 450.515625 245.714844 448.117188 267.6875 438.417969 323.96875 C 420.648438 222.285156 463.390625 23.882812 474.457031 0.386719 C 459.605469 15.179688 418.453125 185.585938 415.167969 271.132812 C 415.417969 278.636719 415.289062 315.523438 415.121094 323.027344 C 415.347656 313.007812 413.761719 303.152344 413.421875 293.195312 C 412.691406 272.167969 410.363281 251.839844 407.992188 231.140625 C 406.0625 214.261719 404.144531 196.902344 399.953125 180.929688 C 390.515625 144.984375 370.351562 116.644531 347.652344 99.707031 C 383.753906 152.175781 400.824219 249.050781 392.449219 325.710938 " fill-opacity="1" fill-rule="nonzero"/></g><g clip-path="url(#6a5e0b7205)"><path fill="#12302e" d="M 377.6875 325.710938 C 358.417969 230.097656 325.039062 201.707031 325.039062 201.707031 C 341.796875 238.511719 362.121094 297.476562 365.011719 325.710938 L 377.6875 325.710938 " fill-opacity="1" fill-rule="nonzero"/></g><g clip-path="url(#aa39f2c528)"><path fill="#12302e" d="M 348.730469 166.988281 C 360.980469 201.671875 376.742188 282.53125 377.714844 325.710938 L 392.417969 325.710938 C 386.324219 257.800781 381.402344 223.566406 348.730469 166.988281 " fill-opacity="1" fill-rule="nonzero"/></g><g clip-path="url(#54024cd147)"><path fill="#120e0f" d="M 313.390625 325.710938 L 328.890625 325.710938 C 333.128906 267.128906 339.351562 220.59375 371.3125 181.84375 C 321.058594 221.355469 320.988281 283.980469 313.390625 325.710938 " fill-opacity="1" fill-rule="nonzero"/></g><g clip-path="url(#bcb57a0d05)"><path fill="#053331" d="M 298.910156 325.710938 L 312.960938 325.710938 C 310.171875 182.75 334.191406 157.761719 354.179688 123.949219 C 294.285156 189.804688 302.675781 230.75 298.910156 325.710938 " fill-opacity="1" fill-rule="nonzero"/></g><g clip-path="url(#320b00879f)"><path fill="#053331" d="M 240.433594 325.710938 L 274.4375 325.710938 C 274.773438 284.042969 274.355469 90.851562 215.128906 0.386719 C 226.195312 23.882812 267.398438 198.484375 249.625 300.164062 C 240.035156 244.515625 171.570312 141.867188 150.414062 128.472656 C 150.414062 128.472656 245.417969 258.320312 240.433594 325.710938 " fill-opacity="1" fill-rule="nonzero"/></g><g clip-path="url(#80bc8d6af9)"><path fill="#120e0f" d="M 298.882812 325.710938 C 290.488281 249.109375 287.277344 182.183594 341.933594 99.707031 C 319.230469 116.644531 298.390625 136.1875 286.226562 186.585938 C 280.101562 211.957031 276.054688 298.65625 274.773438 325.710938 L 298.882812 325.710938 " fill-opacity="1" fill-rule="nonzero"/></g><g clip-path="url(#f3f2269cc3)"><path fill="#120e0f" d="M 451.039062 42.855469 C 450.785156 43.125 434.667969 60.265625 417.710938 102.636719 C 415.703125 107.664062 413.679688 113.046875 411.664062 118.804688 C 409.925781 123.785156 408.195312 129.039062 406.492188 134.582031 C 404.980469 139.488281 403.496094 144.613281 402.039062 149.972656 C 400.261719 156.5 398.535156 163.371094 396.875 170.589844 C 393.835938 183.828125 391.027344 198.25 388.566406 213.921875 C 386.574219 226.605469 384.8125 240.113281 383.355469 254.480469 C 383.046875 257.496094 382.757812 260.542969 382.476562 263.632812 C 380.738281 282.804688 379.53125 303.445312 379 325.632812 L 379 325.710938 L 347.253906 325.710938 L 347.257812 325.632812 C 348.320312 314.246094 348.746094 296.792969 348.070312 275.453125 C 348.054688 275.066406 348.042969 274.675781 348.03125 274.285156 L 348.03125 274.28125 C 347.96875 272.371094 347.894531 270.4375 347.8125 268.472656 C 347.675781 265.15625 347.511719 261.761719 347.320312 258.296875 C 346.824219 249.273438 346.140625 239.746094 345.25 229.847656 C 345.203125 229.394531 345.164062 228.945312 345.125 228.492188 C 344.652344 223.363281 344.121094 218.140625 343.527344 212.828125 C 342.195312 200.839844 340.554688 188.4375 338.558594 175.828125 C 338.105469 172.976562 337.628906 170.113281 337.144531 167.242188 C 336.945312 166.085938 336.75 164.929688 336.542969 163.769531 C 336.136719 161.4375 335.714844 159.101562 335.28125 156.761719 C 335.054688 155.539062 334.824219 154.3125 334.589844 153.085938 C 334.332031 151.71875 334.066406 150.351562 333.792969 148.980469 C 333.726562 148.617188 333.652344 148.261719 333.582031 147.902344 C 332.691406 143.394531 331.75 138.886719 330.753906 134.378906 C 330.492188 133.179688 330.226562 131.972656 329.953125 130.769531 C 329.332031 128.023438 328.691406 125.277344 328.03125 122.535156 C 327.273438 119.367188 326.492188 116.207031 325.675781 113.050781 C 321.574219 97.105469 316.804688 81.359375 311.273438 66.222656 C 310.066406 62.90625 308.824219 59.621094 307.542969 56.378906 C 306.050781 52.585938 304.503906 48.839844 302.90625 45.148438 C 302.777344 44.847656 302.648438 44.542969 302.515625 44.246094 C 301.261719 41.367188 299.976562 38.527344 298.660156 35.71875 C 297.417969 33.054688 296.136719 30.421875 294.828125 27.820312 C 293.617188 25.40625 292.375 23.019531 291.109375 20.667969 C 290.980469 20.421875 290.847656 20.179688 290.714844 19.933594 C 290.601562 19.726562 290.78125 19.507812 290.925781 19.65625 C 291.941406 20.691406 292.949219 21.753906 293.945312 22.84375 C 294.976562 23.964844 296 25.121094 297.011719 26.316406 C 301.769531 31.90625 306.308594 38.214844 310.640625 45.515625 C 311.871094 47.589844 313.085938 49.746094 314.285156 51.992188 C 319.09375 60.976562 323.640625 71.339844 327.960938 83.496094 C 328.789062 85.828125 329.609375 88.230469 330.425781 90.707031 C 331.269531 93.269531 332.101562 95.910156 332.933594 98.632812 C 333.578125 100.761719 334.21875 102.9375 334.855469 105.164062 C 335.21875 106.441406 335.585938 107.734375 335.949219 109.046875 C 337.507812 114.699219 339.035156 120.648438 340.535156 126.933594 C 341.320312 130.226562 342.09375 133.613281 342.859375 137.089844 C 343.15625 138.425781 343.449219 139.769531 343.738281 141.128906 C 343.976562 142.230469 344.214844 143.335938 344.445312 144.457031 C 345.433594 149.152344 346.402344 154.015625 347.363281 159.054688 C 347.65625 160.589844 347.945312 162.132812 348.234375 163.699219 C 348.453125 164.875 348.671875 166.066406 348.886719 167.265625 C 348.910156 167.382812 348.933594 167.5 348.953125 167.621094 C 350.1875 174.457031 351.402344 181.59375 352.59375 189.046875 C 353.082031 192.113281 353.570312 195.242188 354.058594 198.417969 C 354.15625 199.074219 354.253906 199.730469 354.355469 200.390625 C 354.578125 201.859375 354.796875 203.34375 355.015625 204.839844 C 355.0625 205.167969 355.117188 205.5 355.160156 205.828125 C 355.46875 207.90625 355.773438 210.003906 356.074219 212.125 C 357.15625 219.757812 358.230469 227.691406 359.28125 235.933594 C 360.199219 243.121094 361.105469 250.546875 361.996094 258.214844 C 362.195312 259.925781 362.394531 261.652344 362.589844 263.386719 L 362.589844 263.390625 C 362.9375 266.390625 363.273438 269.421875 363.613281 272.492188 C 363.734375 273.597656 363.855469 274.699219 363.972656 275.816406 C 364.273438 278.527344 364.566406 281.273438 364.859375 284.050781 C 366.242188 297.132812 367.589844 310.863281 368.914062 325.273438 C 368.914062 325.273438 368.359375 311.261719 368.886719 289.367188 C 369.105469 280.34375 369.507812 269.980469 370.207031 258.710938 C 370.761719 249.761719 371.511719 240.238281 372.5 230.359375 C 372.859375 226.769531 373.253906 223.136719 373.679688 219.464844 C 375.332031 205.273438 377.511719 190.539062 380.378906 175.835938 C 382.257812 166.175781 384.429688 156.542969 386.949219 147.089844 C 388.589844 140.925781 390.378906 134.835938 392.320312 128.878906 C 393.625 124.886719 394.996094 120.949219 396.4375 117.085938 C 398.289062 112.144531 400.261719 107.316406 402.363281 102.636719 C 404.023438 98.941406 405.753906 95.34375 407.578125 91.847656 C 418.660156 70.578125 432.855469 53.164062 451.039062 42.855469 " fill-opacity="1" fill-rule="nonzero"/></g><g clip-path="url(#519869ba93)"><path fill="#053331" d="M 324.25 325.710938 L 346.886719 325.710938 C 346.742188 323.484375 346.40625 321.128906 346.304688 319.292969 C 345.839844 311.066406 345.316406 302.851562 344.722656 294.644531 C 341.753906 253.746094 336.871094 211.210938 323.691406 174.832031 C 314.015625 148.140625 300.488281 125.085938 284.847656 106.324219 C 273.953125 93.257812 262.03125 82.105469 249.460938 73.261719 C 246.953125 71.5 244.414062 69.832031 241.847656 68.292969 C 241.679688 68.191406 241.605469 68.503906 241.75 68.671875 C 318.628906 159.050781 324.136719 292.199219 324.25 325.710938 " fill-opacity="1" fill-rule="nonzero"/></g><g clip-path="url(#b8e12aafc9)"><path fill="#12302e" d="M 365.988281 100.046875 C 428.371094 138.363281 421.015625 293.34375 418.757812 325.710938 L 440.964844 325.710938 C 441.578125 124.171875 515.355469 136.960938 515.355469 136.960938 C 436.496094 77.34375 429.824219 297.191406 429.824219 297.191406 C 430.425781 82.929688 362.003906 97.597656 365.988281 100.046875 " fill-opacity="1" fill-rule="nonzero"/></g><g clip-path="url(#184d79d117)"><path fill="#12302e" d="M 277.496094 325.710938 C 291.589844 215.160156 360 150.933594 360 150.933594 C 284.941406 193.269531 269.097656 301.199219 266.425781 325.710938 L 277.496094 325.710938 " fill-opacity="1" fill-rule="nonzero"/></g><g clip-path="url(#6aad0abd1c)"><path fill="#12302e" d="M 235.78125 325.710938 L 247.582031 325.710938 C 220.402344 144.117188 146.164062 162.191406 146.164062 162.191406 C 224.511719 200.117188 234.535156 297.339844 235.78125 325.710938 " fill-opacity="1" fill-rule="nonzero"/></g><g clip-path="url(#011cb29e7d)"><path fill="#12302e" d="M 248.933594 325.710938 L 266.058594 325.710938 C 267.707031 213.496094 225.027344 96.980469 225.027344 96.980469 C 254.828125 254.695312 251.015625 311.289062 248.933594 325.710938 " fill-opacity="1" fill-rule="nonzero"/></g><g clip-path="url(#b600001797)"><path fill="#12302e" d="M 561.683594 166.988281 C 573.933594 201.671875 589.695312 282.53125 590.671875 325.710938 L 605.375 325.710938 C 599.277344 257.800781 594.359375 223.566406 561.683594 166.988281 " fill-opacity="1" fill-rule="nonzero"/></g><g clip-path="url(#c9db92f01d)"><path fill="#12302e" d="M 605.402344 325.710938 L 663.542969 325.710938 C 667.980469 249.101562 702.910156 215.710938 702.910156 215.710938 C 663.46875 245.714844 661.074219 267.6875 651.375 323.96875 C 633.601562 222.285156 676.34375 23.882812 687.410156 0.386719 C 672.5625 15.179688 631.40625 185.585938 628.125 271.132812 C 628.375 278.636719 628.246094 315.523438 628.074219 323.027344 C 628.304688 313.007812 626.714844 303.152344 626.375 293.195312 C 625.644531 272.167969 623.320312 251.839844 620.953125 231.140625 C 619.019531 214.261719 617.097656 196.902344 612.90625 180.929688 C 603.472656 144.984375 583.308594 116.644531 560.605469 99.707031 C 596.710938 152.175781 613.777344 249.050781 605.402344 325.710938 " fill-opacity="1" fill-rule="nonzero"/></g><g clip-path="url(#4cf720b5c7)"><path fill="#12302e" d="M 590.644531 325.710938 C 571.371094 230.097656 537.996094 201.707031 537.996094 201.707031 C 554.753906 238.511719 575.078125 297.476562 577.96875 325.710938 L 590.644531 325.710938 " fill-opacity="1" fill-rule="nonzero"/></g><g clip-path="url(#fbca7157ee)"><path fill="#120e0f" d="M 537.457031 325.710938 C 533.789062 265 618.304688 149.484375 618.304688 149.484375 C 599.3125 161.507812 537.863281 253.640625 529.253906 303.585938 C 513.300781 212.320312 550.28125 55.605469 560.214844 34.515625 C 507.433594 115.144531 506.691406 286.683594 506.976562 325.710938 L 537.457031 325.710938 " fill-opacity="1" fill-rule="nonzero"/></g><g clip-path="url(#5feeec80a0)"><path fill="#120e0f" d="M 485.128906 325.710938 L 506.648438 325.710938 C 505.453125 300.554688 501.839844 224.171875 496.398438 201.644531 C 485.480469 156.410156 466.777344 138.867188 446.402344 123.664062 C 495.265625 197.402344 492.597656 257.289062 485.128906 325.710938 " fill-opacity="1" fill-rule="nonzero"/></g><g clip-path="url(#6d60d355df)"><path fill="#120e0f" d="M 458.050781 325.710938 L 471.875 325.710938 C 465.199219 288.253906 464.8125 232.597656 420.03125 197.386719 C 448.574219 231.988281 454.25 273.511719 458.050781 325.710938 " fill-opacity="1" fill-rule="nonzero"/></g><g clip-path="url(#54c628d02f)"><path fill="#120e0f" d="M 472.417969 325.710938 L 484.984375 325.710938 C 481.6875 241.050781 489 204.347656 435.410156 145.425781 C 453.3125 175.707031 474.820312 198.105469 472.417969 325.710938 " fill-opacity="1" fill-rule="nonzero"/></g><g clip-path="url(#4181aed3f5)"><path fill="#120e0f" d="M 537.207031 325.710938 L 559.839844 325.710938 C 559.695312 323.484375 559.363281 321.128906 559.257812 319.292969 C 558.792969 311.066406 558.269531 302.851562 557.675781 294.644531 C 554.707031 253.746094 549.824219 211.210938 536.644531 174.832031 C 526.976562 148.140625 513.441406 125.085938 497.800781 106.324219 C 486.90625 93.257812 474.984375 82.105469 462.414062 73.261719 C 459.90625 71.5 457.375 69.832031 454.804688 68.292969 C 454.636719 68.191406 454.5625 68.503906 454.707031 68.671875 C 531.585938 159.050781 537.089844 292.199219 537.207031 325.710938 " fill-opacity="1" fill-rule="nonzero"/></g><g clip-path="url(#84344d7fce)"><path fill="#12302e" d="M 560.207031 325.710938 L 591.953125 325.710938 C 597.027344 113.308594 663.996094 42.847656 663.996094 42.847656 C 572.710938 94.621094 581.867188 325.273438 581.867188 325.273438 C 563.351562 123.792969 539.570312 56.03125 503.878906 19.65625 C 503.734375 19.507812 503.558594 19.730469 503.667969 19.933594 C 557.785156 119.828125 564.738281 277.480469 560.207031 325.710938 " fill-opacity="1" fill-rule="nonzero"/></g><g clip-path="url(#f067b48d2f)"><path fill="#12302e" d="M 578.941406 100.046875 C 641.324219 138.363281 633.96875 293.34375 631.714844 325.710938 L 653.917969 325.710938 C 654.535156 124.171875 728.308594 136.960938 728.308594 136.960938 C 649.449219 77.34375 642.777344 297.191406 642.777344 297.191406 C 643.382812 82.929688 574.960938 97.597656 578.941406 100.046875 " fill-opacity="1" fill-rule="nonzero"/></g><g clip-path="url(#2c32ce919e)"><path fill="#12302e" d="M 490.449219 325.710938 C 504.546875 215.160156 572.953125 150.933594 572.953125 150.933594 C 497.894531 193.269531 482.050781 301.199219 479.382812 325.710938 L 490.449219 325.710938 " fill-opacity="1" fill-rule="nonzero"/></g><g clip-path="url(#bf0d367c22)"><path fill="#053331" d="M 448.734375 325.710938 L 460.535156 325.710938 C 433.363281 144.117188 359.117188 162.191406 359.117188 162.191406 C 437.464844 200.117188 447.488281 297.339844 448.734375 325.710938 " fill-opacity="1" fill-rule="nonzero"/></g><g clip-path="url(#ae15af6220)"><path fill="#12302e" d="M 461.886719 325.710938 L 479.011719 325.710938 C 480.660156 213.496094 437.980469 96.980469 437.980469 96.980469 C 467.78125 254.695312 463.96875 311.289062 461.886719 325.710938 " fill-opacity="1" fill-rule="nonzero"/></g><g clip-path="url(#0a48fe163b)"><path fill="#12302e" d="M 751.566406 325.710938 L 809.703125 325.710938 C 814.144531 249.101562 849.070312 215.710938 849.070312 215.710938 C 809.632812 245.714844 807.238281 267.6875 797.539062 323.96875 C 779.765625 222.285156 822.507812 23.882812 833.574219 0.386719 C 818.722656 15.179688 777.570312 185.585938 774.285156 271.132812 C 774.535156 278.636719 774.40625 315.523438 774.238281 323.027344 C 774.46875 313.007812 772.878906 303.152344 772.539062 293.195312 C 771.808594 272.167969 769.484375 251.839844 767.109375 231.140625 C 765.183594 214.261719 763.261719 196.902344 759.070312 180.929688 C 749.632812 144.984375 729.46875 116.644531 706.769531 99.707031 C 742.875 152.175781 759.941406 249.050781 751.566406 325.710938 " fill-opacity="1" fill-rule="nonzero"/></g><g clip-path="url(#4df6dafffe)"><path fill="#12302e" d="M 736.804688 325.710938 C 717.535156 230.097656 684.160156 201.707031 684.160156 201.707031 C 700.914062 238.511719 721.242188 297.476562 724.132812 325.710938 L 736.804688 325.710938 " fill-opacity="1" fill-rule="nonzero"/></g><g clip-path="url(#1cbaad12c5)"><path fill="#12302e" d="M 707.847656 166.988281 C 720.097656 201.671875 735.859375 282.53125 736.832031 325.710938 L 751.539062 325.710938 C 745.441406 257.800781 740.523438 223.566406 707.847656 166.988281 " fill-opacity="1" fill-rule="nonzero"/></g><g clip-path="url(#564eb93f6b)"><path fill="#120e0f" d="M 672.507812 325.710938 L 688.007812 325.710938 C 692.246094 267.128906 698.46875 220.59375 730.433594 181.84375 C 680.175781 221.355469 680.105469 283.980469 672.507812 325.710938 " fill-opacity="1" fill-rule="nonzero"/></g><g clip-path="url(#5a3cc3f22a)"><path fill="#053331" d="M 658.027344 325.710938 L 672.082031 325.710938 C 669.289062 182.75 693.308594 157.761719 713.296875 123.949219 C 653.402344 189.804688 661.792969 230.75 658.027344 325.710938 " fill-opacity="1" fill-rule="nonzero"/></g><g clip-path="url(#2a64302b4d)"><path fill="#053331" d="M 599.550781 325.710938 L 633.558594 325.710938 C 633.890625 284.042969 633.472656 90.851562 574.246094 0.386719 C 585.316406 23.882812 626.515625 198.484375 608.742188 300.164062 C 599.152344 244.515625 530.6875 141.867188 509.535156 128.472656 C 509.535156 128.472656 604.535156 258.320312 599.550781 325.710938 " fill-opacity="1" fill-rule="nonzero"/></g><g clip-path="url(#df0d9b0a65)"><path fill="#120e0f" d="M 658 325.710938 C 649.605469 249.109375 646.398438 182.183594 701.054688 99.707031 C 678.347656 116.644531 657.507812 136.1875 645.347656 186.585938 C 639.21875 211.957031 635.171875 298.65625 633.890625 325.710938 L 658 325.710938 " fill-opacity="1" fill-rule="nonzero"/></g><g clip-path="url(#6e1d224768)"><path fill="#120e0f" d="M 810.15625 42.855469 C 809.902344 43.125 793.785156 60.265625 776.832031 102.636719 C 774.820312 107.664062 772.796875 113.046875 770.78125 118.804688 C 769.042969 123.785156 767.3125 129.039062 765.609375 134.582031 C 764.097656 139.488281 762.613281 144.613281 761.15625 149.972656 C 759.378906 156.5 757.652344 163.371094 755.996094 170.589844 C 752.953125 183.828125 750.144531 198.25 747.683594 213.921875 C 745.691406 226.605469 743.933594 240.113281 742.472656 254.480469 C 742.164062 257.496094 741.875 260.542969 741.59375 263.632812 C 739.859375 282.804688 738.648438 303.445312 738.117188 325.632812 L 738.117188 325.710938 L 706.371094 325.710938 L 706.375 325.632812 C 707.4375 314.246094 707.863281 296.792969 707.1875 275.453125 C 707.171875 275.066406 707.160156 274.675781 707.148438 274.285156 L 707.148438 274.28125 C 707.089844 272.371094 707.011719 270.4375 706.929688 268.472656 C 706.792969 265.15625 706.628906 261.761719 706.441406 258.296875 C 705.941406 249.273438 705.261719 239.746094 704.367188 229.847656 C 704.320312 229.394531 704.28125 228.945312 704.242188 228.492188 C 703.769531 223.363281 703.238281 218.140625 702.648438 212.828125 C 701.316406 200.839844 699.671875 188.4375 697.675781 175.828125 C 697.222656 172.976562 696.75 170.113281 696.261719 167.242188 C 696.0625 166.085938 695.867188 164.929688 695.660156 163.769531 C 695.253906 161.4375 694.832031 159.101562 694.398438 156.761719 C 694.171875 155.539062 693.941406 154.3125 693.710938 153.085938 C 693.453125 151.71875 693.1875 150.351562 692.910156 148.980469 C 692.84375 148.617188 692.769531 148.261719 692.699219 147.902344 C 691.808594 143.394531 690.867188 138.886719 689.871094 134.378906 C 689.609375 133.179688 689.34375 131.972656 689.070312 130.769531 C 688.449219 128.023438 687.8125 125.277344 687.148438 122.535156 C 686.394531 119.367188 685.609375 116.207031 684.796875 113.050781 C 680.691406 97.105469 675.921875 81.359375 670.394531 66.222656 C 669.183594 62.90625 667.941406 59.621094 666.660156 56.378906 C 665.167969 52.585938 663.621094 48.839844 662.023438 45.148438 C 661.894531 44.847656 661.765625 44.542969 661.632812 44.246094 C 660.378906 41.367188 659.09375 38.527344 657.777344 35.71875 C 656.535156 33.054688 655.253906 30.421875 653.945312 27.820312 C 652.734375 25.40625 651.492188 23.019531 650.226562 20.667969 C 650.097656 20.421875 649.964844 20.179688 649.832031 19.933594 C 649.71875 19.726562 649.898438 19.507812 650.042969 19.65625 C 651.058594 20.691406 652.066406 21.753906 653.0625 22.84375 C 654.09375 23.964844 655.117188 25.121094 656.128906 26.316406 C 660.886719 31.90625 665.425781 38.214844 669.757812 45.515625 C 670.988281 47.589844 672.203125 49.746094 673.40625 51.992188 C 678.210938 60.976562 682.757812 71.339844 687.078125 83.496094 C 687.90625 85.828125 688.730469 88.230469 689.542969 90.707031 C 690.386719 93.269531 691.222656 95.910156 692.050781 98.632812 C 692.695312 100.761719 693.339844 102.9375 693.976562 105.164062 C 694.335938 106.441406 694.703125 107.734375 695.066406 109.046875 C 696.625 114.699219 698.152344 120.648438 699.652344 126.933594 C 700.4375 130.226562 701.210938 133.613281 701.980469 137.089844 C 702.273438 138.425781 702.566406 139.769531 702.855469 141.128906 C 703.09375 142.230469 703.332031 143.335938 703.566406 144.457031 C 704.550781 149.152344 705.523438 154.015625 706.480469 159.054688 C 706.773438 160.589844 707.0625 162.132812 707.355469 163.699219 C 707.570312 164.875 707.789062 166.066406 708.007812 167.265625 C 708.027344 167.382812 708.050781 167.5 708.070312 167.621094 C 709.304688 174.457031 710.519531 181.59375 711.710938 189.046875 C 712.203125 192.113281 712.6875 195.242188 713.175781 198.417969 C 713.273438 199.074219 713.375 199.730469 713.472656 200.390625 C 713.695312 201.859375 713.917969 203.34375 714.132812 204.839844 C 714.183594 205.167969 714.234375 205.5 714.277344 205.828125 C 714.585938 207.90625 714.890625 210.003906 715.191406 212.125 C 716.277344 219.757812 717.347656 227.691406 718.398438 235.933594 C 719.316406 243.121094 720.222656 250.546875 721.117188 258.214844 C 721.3125 259.925781 721.515625 261.652344 721.707031 263.386719 L 721.707031 263.390625 C 722.054688 266.390625 722.390625 269.421875 722.730469 272.492188 C 722.851562 273.597656 722.972656 274.699219 723.09375 275.816406 C 723.390625 278.527344 723.683594 281.273438 723.976562 284.050781 C 725.359375 297.132812 726.707031 310.863281 728.03125 325.273438 C 728.03125 325.273438 727.476562 311.261719 728.003906 289.367188 C 728.222656 280.34375 728.625 269.980469 729.324219 258.710938 C 729.878906 249.761719 730.628906 240.238281 731.621094 230.359375 C 731.976562 226.769531 732.371094 223.136719 732.800781 219.464844 C 734.449219 205.273438 736.628906 190.539062 739.496094 175.835938 C 741.375 166.175781 743.550781 156.542969 746.066406 147.089844 C 747.707031 140.925781 749.496094 134.835938 751.4375 128.878906 C 752.742188 124.886719 754.113281 120.949219 755.554688 117.085938 C 757.40625 112.144531 759.378906 107.316406 761.480469 102.636719 C 763.140625 98.941406 764.871094 95.34375 766.695312 91.847656 C 777.777344 70.578125 791.972656 53.164062 810.15625 42.855469 " fill-opacity="1" fill-rule="nonzero"/></g><g clip-path="url(#9e42028bd0)"><path fill="#053331" d="M 683.371094 325.710938 L 706.003906 325.710938 C 705.859375 323.484375 705.527344 321.128906 705.421875 319.292969 C 704.957031 311.066406 704.433594 302.851562 703.839844 294.644531 C 700.871094 253.746094 695.988281 211.210938 682.808594 174.832031 C 673.136719 148.140625 659.605469 125.085938 643.964844 106.324219 C 633.070312 93.257812 621.148438 82.105469 608.578125 73.261719 C 606.070312 71.5 603.535156 69.832031 600.964844 68.292969 C 600.796875 68.191406 600.722656 68.503906 600.867188 68.671875 C 677.746094 159.050781 683.253906 292.199219 683.371094 325.710938 " fill-opacity="1" fill-rule="nonzero"/></g><g clip-path="url(#ea4378c892)"><path fill="#12302e" d="M 725.105469 100.046875 C 787.488281 138.363281 780.132812 293.34375 777.878906 325.710938 L 800.082031 325.710938 C 800.699219 124.171875 874.472656 136.960938 874.472656 136.960938 C 795.613281 77.34375 788.941406 297.191406 788.941406 297.191406 C 789.546875 82.929688 721.125 97.597656 725.105469 100.046875 " fill-opacity="1" fill-rule="nonzero"/></g><g clip-path="url(#fde93d3e64)"><path fill="#12302e" d="M 636.613281 325.710938 C 650.710938 215.160156 719.117188 150.933594 719.117188 150.933594 C 644.058594 193.269531 628.214844 301.199219 625.546875 325.710938 L 636.613281 325.710938 " fill-opacity="1" fill-rule="nonzero"/></g><g clip-path="url(#f2a27d96a6)"><path fill="#12302e" d="M 594.898438 325.710938 L 606.699219 325.710938 C 579.519531 144.117188 505.28125 162.191406 505.28125 162.191406 C 583.628906 200.117188 593.652344 297.339844 594.898438 325.710938 " fill-opacity="1" fill-rule="nonzero"/></g><g clip-path="url(#42fd85db0e)"><path fill="#12302e" d="M 608.050781 325.710938 L 625.175781 325.710938 C 626.824219 213.496094 584.144531 96.980469 584.144531 96.980469 C 613.945312 254.695312 610.132812 311.289062 608.050781 325.710938 " fill-opacity="1" fill-rule="nonzero"/></g><g clip-path="url(#c2485d7aa0)"><path fill="#12302e" d="M 881.777344 166.988281 C 894.027344 201.671875 909.789062 282.53125 910.761719 325.710938 L 925.464844 325.710938 C 919.371094 257.800781 914.449219 223.566406 881.777344 166.988281 " fill-opacity="1" fill-rule="nonzero"/></g><g clip-path="url(#6308e365d2)"><path fill="#12302e" d="M 925.496094 325.710938 L 983.636719 325.710938 C 988.074219 249.101562 1023 215.710938 1023 215.710938 C 983.5625 245.714844 981.164062 267.6875 971.464844 323.96875 C 953.695312 222.285156 996.4375 23.882812 1007.503906 0.386719 C 992.65625 15.179688 951.5 185.585938 948.21875 271.132812 C 948.46875 278.636719 948.339844 315.523438 948.167969 323.027344 C 948.394531 313.007812 946.808594 303.152344 946.46875 293.195312 C 945.738281 272.167969 943.410156 251.839844 941.042969 231.140625 C 939.113281 214.261719 937.191406 196.902344 933 180.929688 C 923.566406 144.984375 903.402344 116.644531 880.699219 99.707031 C 916.800781 152.175781 933.871094 249.050781 925.496094 325.710938 " fill-opacity="1" fill-rule="nonzero"/></g><g clip-path="url(#a5b74d7ab4)"><path fill="#12302e" d="M 910.738281 325.710938 C 891.464844 230.097656 858.085938 201.707031 858.085938 201.707031 C 874.84375 238.511719 895.167969 297.476562 898.058594 325.710938 L 910.738281 325.710938 " fill-opacity="1" fill-rule="nonzero"/></g><g clip-path="url(#bb25fc7101)"><path fill="#120e0f" d="M 857.546875 325.710938 C 853.878906 265 938.398438 149.484375 938.398438 149.484375 C 919.40625 161.507812 857.953125 253.640625 849.347656 303.585938 C 833.394531 212.320312 870.375 55.605469 880.308594 34.515625 C 827.523438 115.144531 826.785156 286.683594 827.070312 325.710938 L 857.546875 325.710938 " fill-opacity="1" fill-rule="nonzero"/></g><g clip-path="url(#2d9de4c031)"><path fill="#120e0f" d="M 805.222656 325.710938 L 826.738281 325.710938 C 825.546875 300.554688 821.933594 224.171875 816.492188 201.644531 C 805.574219 156.410156 786.871094 138.867188 766.496094 123.664062 C 815.359375 197.402344 812.691406 257.289062 805.222656 325.710938 " fill-opacity="1" fill-rule="nonzero"/></g><g clip-path="url(#49ae5f1e06)"><path fill="#120e0f" d="M 778.144531 325.710938 L 791.96875 325.710938 C 785.292969 288.253906 784.90625 232.597656 740.125 197.386719 C 768.664062 231.988281 774.34375 273.511719 778.144531 325.710938 " fill-opacity="1" fill-rule="nonzero"/></g><g clip-path="url(#76c3c92655)"><path fill="#120e0f" d="M 792.511719 325.710938 L 805.078125 325.710938 C 801.78125 241.050781 809.09375 204.347656 755.503906 145.425781 C 773.402344 175.707031 794.914062 198.105469 792.511719 325.710938 " fill-opacity="1" fill-rule="nonzero"/></g><g clip-path="url(#b46fe1a989)"><path fill="#120e0f" d="M 857.296875 325.710938 L 879.933594 325.710938 C 879.789062 323.484375 879.453125 321.128906 879.351562 319.292969 C 878.886719 311.066406 878.363281 302.851562 877.769531 294.644531 C 874.800781 253.746094 869.917969 211.210938 856.738281 174.832031 C 847.066406 148.140625 833.535156 125.085938 817.894531 106.324219 C 807 93.257812 795.078125 82.105469 782.507812 73.261719 C 780 71.5 777.464844 69.832031 774.898438 68.292969 C 774.730469 68.191406 774.65625 68.503906 774.800781 68.671875 C 851.679688 159.050781 857.183594 292.199219 857.296875 325.710938 " fill-opacity="1" fill-rule="nonzero"/></g><g clip-path="url(#a99352ba65)"><path fill="#12302e" d="M 880.300781 325.710938 L 912.046875 325.710938 C 917.121094 113.308594 984.089844 42.847656 984.089844 42.847656 C 892.800781 94.621094 901.960938 325.273438 901.960938 325.273438 C 883.445312 123.792969 859.660156 56.03125 823.972656 19.65625 C 823.828125 19.507812 823.652344 19.730469 823.761719 19.933594 C 877.875 119.828125 884.828125 277.480469 880.300781 325.710938 " fill-opacity="1" fill-rule="nonzero"/></g><g clip-path="url(#0b82fad853)"><path fill="#12302e" d="M 899.035156 100.046875 C 961.417969 138.363281 954.0625 293.34375 951.804688 325.710938 L 974.011719 325.710938 C 974.625 124.171875 1048.402344 136.960938 1048.402344 136.960938 C 969.542969 77.34375 962.871094 297.191406 962.871094 297.191406 C 963.472656 82.929688 895.050781 97.597656 899.035156 100.046875 " fill-opacity="1" fill-rule="nonzero"/></g><g clip-path="url(#b9d9cb8cc6)"><path fill="#12302e" d="M 810.542969 325.710938 C 824.636719 215.160156 893.046875 150.933594 893.046875 150.933594 C 817.988281 193.269531 802.144531 301.199219 799.472656 325.710938 L 810.542969 325.710938 " fill-opacity="1" fill-rule="nonzero"/></g><g clip-path="url(#3660800003)"><path fill="#053331" d="M 768.828125 325.710938 L 780.628906 325.710938 C 753.453125 144.117188 679.210938 162.191406 679.210938 162.191406 C 757.558594 200.117188 767.582031 297.339844 768.828125 325.710938 " fill-opacity="1" fill-rule="nonzero"/></g><g clip-path="url(#664ac60e42)"><path fill="#12302e" d="M 781.980469 325.710938 L 799.105469 325.710938 C 800.753906 213.496094 758.074219 96.980469 758.074219 96.980469 C 787.875 254.695312 784.0625 311.289062 781.980469 325.710938 " fill-opacity="1" fill-rule="nonzero"/></g><g clip-path="url(#1c0551fbe7)"><path fill="#12302e" d="M 1071.660156 325.710938 L 1129.796875 325.710938 C 1134.238281 249.101562 1169.160156 215.710938 1169.160156 215.710938 C 1129.726562 245.714844 1127.328125 267.6875 1117.628906 323.96875 C 1099.859375 222.285156 1142.601562 23.882812 1153.667969 0.386719 C 1138.816406 15.179688 1097.664062 185.585938 1094.378906 271.132812 C 1094.628906 278.636719 1094.5 315.523438 1094.332031 323.027344 C 1094.558594 313.007812 1092.972656 303.152344 1092.632812 293.195312 C 1091.902344 272.167969 1089.574219 251.839844 1087.203125 231.140625 C 1085.273438 214.261719 1083.355469 196.902344 1079.164062 180.929688 C 1069.726562 144.984375 1049.5625 116.644531 1026.863281 99.707031 C 1062.964844 152.175781 1080.03125 249.050781 1071.660156 325.710938 " fill-opacity="1" fill-rule="nonzero"/></g><g clip-path="url(#dc1dcabba4)"><path fill="#12302e" d="M 1056.898438 325.710938 C 1037.628906 230.097656 1004.25 201.707031 1004.25 201.707031 C 1021.007812 238.511719 1041.332031 297.476562 1044.222656 325.710938 L 1056.898438 325.710938 " fill-opacity="1" fill-rule="nonzero"/></g><g clip-path="url(#bcd47edd38)"><path fill="#12302e" d="M 1027.941406 166.988281 C 1040.191406 201.671875 1055.953125 282.53125 1056.925781 325.710938 L 1071.628906 325.710938 C 1065.535156 257.800781 1060.613281 223.566406 1027.941406 166.988281 " fill-opacity="1" fill-rule="nonzero"/></g><g clip-path="url(#e3271e644b)"><path fill="#120e0f" d="M 992.601562 325.710938 L 1008.101562 325.710938 C 1012.339844 267.128906 1018.5625 220.59375 1050.523438 181.84375 C 1000.269531 221.355469 1000.195312 283.980469 992.601562 325.710938 " fill-opacity="1" fill-rule="nonzero"/></g><g clip-path="url(#e76f3ffd7e)"><path fill="#053331" d="M 978.121094 325.710938 L 992.171875 325.710938 C 989.382812 182.75 1013.402344 157.761719 1033.390625 123.949219 C 973.496094 189.804688 981.886719 230.75 978.121094 325.710938 " fill-opacity="1" fill-rule="nonzero"/></g><g clip-path="url(#6b140805ab)"><path fill="#053331" d="M 919.644531 325.710938 L 953.648438 325.710938 C 953.984375 284.042969 953.566406 90.851562 894.339844 0.386719 C 905.40625 23.882812 946.609375 198.484375 928.835938 300.164062 C 919.246094 244.515625 850.78125 141.867188 829.625 128.472656 C 829.625 128.472656 924.628906 258.320312 919.644531 325.710938 " fill-opacity="1" fill-rule="nonzero"/></g><g clip-path="url(#b529d7914f)"><path fill="#120e0f" d="M 978.09375 325.710938 C 969.699219 249.109375 966.488281 182.183594 1021.144531 99.707031 C 998.441406 116.644531 977.601562 136.1875 965.4375 186.585938 C 959.3125 211.957031 955.265625 298.65625 953.984375 325.710938 L 978.09375 325.710938 " fill-opacity="1" fill-rule="nonzero"/></g><g clip-path="url(#c17e35d469)"><path fill="#120e0f" d="M 1130.25 42.855469 C 1129.996094 43.125 1113.878906 60.265625 1096.921875 102.636719 C 1094.914062 107.664062 1092.890625 113.046875 1090.875 118.804688 C 1089.136719 123.785156 1087.40625 129.039062 1085.703125 134.582031 C 1084.191406 139.488281 1082.707031 144.613281 1081.25 149.972656 C 1079.472656 156.5 1077.746094 163.371094 1076.085938 170.589844 C 1073.046875 183.828125 1070.238281 198.25 1067.777344 213.921875 C 1065.785156 226.605469 1064.023438 240.113281 1062.566406 254.480469 C 1062.257812 257.496094 1061.96875 260.542969 1061.6875 263.632812 C 1059.949219 282.804688 1058.742188 303.445312 1058.210938 325.632812 L 1058.210938 325.710938 L 1026.464844 325.710938 L 1026.46875 325.632812 C 1027.53125 314.246094 1027.957031 296.792969 1027.28125 275.453125 C 1027.265625 275.066406 1027.253906 274.675781 1027.242188 274.285156 L 1027.242188 274.28125 C 1027.179688 272.371094 1027.105469 270.4375 1027.023438 268.472656 C 1026.886719 265.15625 1026.722656 261.761719 1026.53125 258.296875 C 1026.035156 249.273438 1025.351562 239.746094 1024.460938 229.847656 C 1024.414062 229.394531 1024.375 228.945312 1024.335938 228.492188 C 1023.863281 223.363281 1023.332031 218.140625 1022.738281 212.828125 C 1021.40625 200.839844 1019.765625 188.4375 1017.769531 175.828125 C 1017.316406 172.976562 1016.839844 170.113281 1016.355469 167.242188 C 1016.15625 166.085938 1015.960938 164.929688 1015.753906 163.769531 C 1015.347656 161.4375 1014.925781 159.101562 1014.492188 156.761719 C 1014.265625 155.539062 1014.035156 154.3125 1013.800781 153.085938 C 1013.542969 151.71875 1013.277344 150.351562 1013.003906 148.980469 C 1012.9375 148.617188 1012.863281 148.261719 1012.792969 147.902344 C 1011.902344 143.394531 1010.960938 138.886719 1009.964844 134.378906 C 1009.703125 133.179688 1009.4375 131.972656 1009.164062 130.769531 C 1008.542969 128.023438 1007.902344 125.277344 1007.242188 122.535156 C 1006.484375 119.367188 1005.699219 116.207031 1004.886719 113.050781 C 1000.785156 97.105469 996.015625 81.359375 990.484375 66.222656 C 989.277344 62.90625 988.035156 59.621094 986.753906 56.378906 C 985.261719 52.585938 983.714844 48.839844 982.117188 45.148438 C 981.988281 44.847656 981.859375 44.542969 981.726562 44.246094 C 980.472656 41.367188 979.1875 38.527344 977.871094 35.71875 C 976.628906 33.054688 975.347656 30.421875 974.039062 27.820312 C 972.828125 25.40625 971.585938 23.019531 970.320312 20.667969 C 970.191406 20.421875 970.058594 20.179688 969.925781 19.933594 C 969.8125 19.726562 969.992188 19.507812 970.136719 19.65625 C 971.152344 20.691406 972.160156 21.753906 973.15625 22.84375 C 974.1875 23.964844 975.210938 25.121094 976.222656 26.316406 C 980.980469 31.90625 985.519531 38.214844 989.851562 45.515625 C 991.082031 47.589844 992.296875 49.746094 993.496094 51.992188 C 998.304688 60.976562 1002.851562 71.339844 1007.171875 83.496094 C 1008 85.828125 1008.820312 88.230469 1009.632812 90.707031 C 1010.480469 93.269531 1011.3125 95.910156 1012.144531 98.632812 C 1012.789062 100.761719 1013.429688 102.9375 1014.066406 105.164062 C 1014.429688 106.441406 1014.796875 107.734375 1015.160156 109.046875 C 1016.714844 114.699219 1018.246094 120.648438 1019.746094 126.933594 C 1020.53125 130.226562 1021.300781 133.613281 1022.070312 137.089844 C 1022.367188 138.425781 1022.660156 139.769531 1022.949219 141.128906 C 1023.1875 142.230469 1023.425781 143.335938 1023.65625 144.457031 C 1024.644531 149.152344 1025.613281 154.015625 1026.574219 159.054688 C 1026.867188 160.589844 1027.15625 162.132812 1027.445312 163.699219 C 1027.664062 164.875 1027.882812 166.066406 1028.097656 167.265625 C 1028.117188 167.382812 1028.144531 167.5 1028.164062 167.621094 C 1029.398438 174.457031 1030.609375 181.59375 1031.804688 189.046875 C 1032.292969 192.113281 1032.78125 195.242188 1033.269531 198.417969 C 1033.363281 199.074219 1033.464844 199.730469 1033.566406 200.390625 C 1033.789062 201.859375 1034.007812 203.34375 1034.226562 204.839844 C 1034.273438 205.167969 1034.328125 205.5 1034.371094 205.828125 C 1034.679688 207.90625 1034.984375 210.003906 1035.285156 212.125 C 1036.367188 219.757812 1037.441406 227.691406 1038.492188 235.933594 C 1039.410156 243.121094 1040.316406 250.546875 1041.207031 258.214844 C 1041.40625 259.925781 1041.605469 261.652344 1041.800781 263.386719 L 1041.800781 263.390625 C 1042.144531 266.390625 1042.484375 269.421875 1042.824219 272.492188 C 1042.945312 273.597656 1043.0625 274.699219 1043.183594 275.816406 C 1043.484375 278.527344 1043.777344 281.273438 1044.070312 284.050781 C 1045.453125 297.132812 1046.800781 310.863281 1048.125 325.273438 C 1048.125 325.273438 1047.570312 311.261719 1048.097656 289.367188 C 1048.316406 280.34375 1048.71875 269.980469 1049.417969 258.710938 C 1049.972656 249.761719 1050.722656 240.238281 1051.710938 230.359375 C 1052.070312 226.769531 1052.464844 223.136719 1052.890625 219.464844 C 1054.542969 205.273438 1056.722656 190.539062 1059.589844 175.835938 C 1061.46875 166.175781 1063.640625 156.542969 1066.160156 147.089844 C 1067.800781 140.925781 1069.589844 134.835938 1071.53125 128.878906 C 1072.835938 124.886719 1074.207031 120.949219 1075.648438 117.085938 C 1077.5 112.144531 1079.472656 107.316406 1081.574219 102.636719 C 1083.234375 98.941406 1084.964844 95.34375 1086.789062 91.847656 C 1097.871094 70.578125 1112.066406 53.164062 1130.25 42.855469 " fill-opacity="1" fill-rule="nonzero"/></g><g clip-path="url(#2839fdcdf6)"><path fill="#053331" d="M 1003.460938 325.710938 L 1026.097656 325.710938 C 1025.953125 323.484375 1025.617188 321.128906 1025.515625 319.292969 C 1025.050781 311.066406 1024.527344 302.851562 1023.933594 294.644531 C 1020.964844 253.746094 1016.082031 211.210938 1002.902344 174.832031 C 993.226562 148.140625 979.699219 125.085938 964.058594 106.324219 C 953.164062 93.257812 941.242188 82.105469 928.671875 73.261719 C 926.164062 71.5 923.625 69.832031 921.058594 68.292969 C 920.890625 68.191406 920.816406 68.503906 920.960938 68.671875 C 997.835938 159.050781 1003.34375 292.199219 1003.460938 325.710938 " fill-opacity="1" fill-rule="nonzero"/></g><g clip-path="url(#4d4f6bd326)"><path fill="#12302e" d="M 1045.199219 100.046875 C 1107.582031 138.363281 1100.226562 293.34375 1097.96875 325.710938 L 1120.175781 325.710938 C 1120.789062 124.171875 1194.566406 136.960938 1194.566406 136.960938 C 1115.707031 77.34375 1109.035156 297.191406 1109.035156 297.191406 C 1109.636719 82.929688 1041.214844 97.597656 1045.199219 100.046875 " fill-opacity="1" fill-rule="nonzero"/></g><g clip-path="url(#ecc7281197)"><path fill="#12302e" d="M 956.707031 325.710938 C 970.800781 215.160156 1039.210938 150.933594 1039.210938 150.933594 C 964.152344 193.269531 948.308594 301.199219 945.636719 325.710938 L 956.707031 325.710938 " fill-opacity="1" fill-rule="nonzero"/></g><g clip-path="url(#ddf867382e)"><path fill="#12302e" d="M 914.992188 325.710938 L 926.792969 325.710938 C 899.613281 144.117188 825.375 162.191406 825.375 162.191406 C 903.722656 200.117188 913.746094 297.339844 914.992188 325.710938 " fill-opacity="1" fill-rule="nonzero"/></g><g clip-path="url(#2f2b15cad6)"><path fill="#12302e" d="M 928.144531 325.710938 L 945.265625 325.710938 C 946.917969 213.496094 904.234375 96.980469 904.234375 96.980469 C 934.039062 254.695312 930.226562 311.289062 928.144531 325.710938 " fill-opacity="1" fill-rule="nonzero"/></g><g clip-path="url(#4b0996d256)"><path fill="#12302e" d="M 1215.453125 166.988281 C 1227.703125 201.671875 1243.464844 282.53125 1244.4375 325.710938 L 1259.144531 325.710938 C 1253.046875 257.800781 1248.128906 223.566406 1215.453125 166.988281 " fill-opacity="1" fill-rule="nonzero"/></g><g clip-path="url(#8b333c90ed)"><path fill="#12302e" d="M 1259.171875 325.710938 L 1317.3125 325.710938 C 1321.75 249.101562 1356.679688 215.710938 1356.679688 215.710938 C 1317.238281 245.714844 1314.84375 267.6875 1305.144531 323.96875 C 1287.371094 222.285156 1330.113281 23.882812 1341.179688 0.386719 C 1326.332031 15.179688 1285.175781 185.585938 1281.894531 271.132812 C 1282.144531 278.636719 1282.015625 315.523438 1281.84375 323.027344 C 1282.074219 313.007812 1280.484375 303.152344 1280.144531 293.195312 C 1279.414062 272.167969 1277.089844 251.839844 1274.71875 231.140625 C 1272.789062 214.261719 1270.867188 196.902344 1266.675781 180.929688 C 1257.242188 144.984375 1237.078125 116.644531 1214.375 99.707031 C 1250.480469 152.175781 1267.546875 249.050781 1259.171875 325.710938 " fill-opacity="1" fill-rule="nonzero"/></g><g clip-path="url(#9ceeb41c15)"><path fill="#12302e" d="M 1244.414062 325.710938 C 1225.140625 230.097656 1191.765625 201.707031 1191.765625 201.707031 C 1208.519531 238.511719 1228.847656 297.476562 1231.738281 325.710938 L 1244.414062 325.710938 " fill-opacity="1" fill-rule="nonzero"/></g><g clip-path="url(#a75733e816)"><path fill="#120e0f" d="M 1191.226562 325.710938 C 1187.558594 265 1272.074219 149.484375 1272.074219 149.484375 C 1253.082031 161.507812 1191.632812 253.640625 1183.023438 303.585938 C 1167.070312 212.320312 1204.050781 55.605469 1213.984375 34.515625 C 1161.203125 115.144531 1160.460938 286.683594 1160.746094 325.710938 L 1191.226562 325.710938 " fill-opacity="1" fill-rule="nonzero"/></g><g clip-path="url(#811574ac3f)"><path fill="#120e0f" d="M 1138.898438 325.710938 L 1160.417969 325.710938 C 1159.222656 300.554688 1155.609375 224.171875 1150.167969 201.644531 C 1139.25 156.410156 1120.546875 138.867188 1100.171875 123.664062 C 1149.035156 197.402344 1146.367188 257.289062 1138.898438 325.710938 " fill-opacity="1" fill-rule="nonzero"/></g><g clip-path="url(#8463687253)"><path fill="#120e0f" d="M 1111.820312 325.710938 L 1125.644531 325.710938 C 1118.96875 288.253906 1118.582031 232.597656 1073.800781 197.386719 C 1102.34375 231.988281 1108.019531 273.511719 1111.820312 325.710938 " fill-opacity="1" fill-rule="nonzero"/></g><g clip-path="url(#87c6c6d732)"><path fill="#120e0f" d="M 1126.1875 325.710938 L 1138.753906 325.710938 C 1135.457031 241.050781 1142.769531 204.347656 1089.179688 145.425781 C 1107.082031 175.707031 1128.589844 198.105469 1126.1875 325.710938 " fill-opacity="1" fill-rule="nonzero"/></g><g clip-path="url(#39adc22a33)"><path fill="#120e0f" d="M 1190.976562 325.710938 L 1213.609375 325.710938 C 1213.464844 323.484375 1213.132812 321.128906 1213.027344 319.292969 C 1212.5625 311.066406 1212.039062 302.851562 1211.445312 294.644531 C 1208.476562 253.746094 1203.59375 211.210938 1190.414062 174.832031 C 1180.746094 148.140625 1167.210938 125.085938 1151.570312 106.324219 C 1140.675781 93.257812 1128.753906 82.105469 1116.183594 73.261719 C 1113.675781 71.5 1111.144531 69.832031 1108.574219 68.292969 C 1108.40625 68.191406 1108.332031 68.503906 1108.476562 68.671875 C 1185.355469 159.050781 1190.859375 292.199219 1190.976562 325.710938 " fill-opacity="1" fill-rule="nonzero"/></g><g clip-path="url(#32ffe57c43)"><path fill="#12302e" d="M 1213.976562 325.710938 L 1245.722656 325.710938 C 1250.796875 113.308594 1317.765625 42.847656 1317.765625 42.847656 C 1226.476562 94.621094 1235.636719 325.273438 1235.636719 325.273438 C 1217.121094 123.792969 1193.339844 56.03125 1157.648438 19.65625 C 1157.503906 19.507812 1157.328125 19.730469 1157.4375 19.933594 C 1211.554688 119.828125 1218.507812 277.480469 1213.976562 325.710938 " fill-opacity="1" fill-rule="nonzero"/></g><g clip-path="url(#ad6a40396f)"><path fill="#12302e" d="M 1232.710938 100.046875 C 1295.09375 138.363281 1287.738281 293.34375 1285.484375 325.710938 L 1307.6875 325.710938 C 1308.304688 124.171875 1382.078125 136.960938 1382.078125 136.960938 C 1303.21875 77.34375 1296.546875 297.191406 1296.546875 297.191406 C 1297.152344 82.929688 1228.730469 97.597656 1232.710938 100.046875 " fill-opacity="1" fill-rule="nonzero"/></g><g clip-path="url(#8662075819)"><path fill="#12302e" d="M 1144.21875 325.710938 C 1158.316406 215.160156 1226.722656 150.933594 1226.722656 150.933594 C 1151.664062 193.269531 1135.820312 301.199219 1133.152344 325.710938 L 1144.21875 325.710938 " fill-opacity="1" fill-rule="nonzero"/></g><g clip-path="url(#e4463968d8)"><path fill="#053331" d="M 1102.503906 325.710938 L 1114.304688 325.710938 C 1087.132812 144.117188 1012.886719 162.191406 1012.886719 162.191406 C 1091.234375 200.117188 1101.257812 297.339844 1102.503906 325.710938 " fill-opacity="1" fill-rule="nonzero"/></g><g clip-path="url(#4b7ff4bcfa)"><path fill="#12302e" d="M 1115.65625 325.710938 L 1132.78125 325.710938 C 1134.429688 213.496094 1091.75 96.980469 1091.75 96.980469 C 1121.550781 254.695312 1117.738281 311.289062 1115.65625 325.710938 " fill-opacity="1" fill-rule="nonzero"/></g><g clip-path="url(#3e191e6a5c)"><path fill="#12302e" d="M 1405.335938 325.710938 L 1463.472656 325.710938 C 1467.914062 249.101562 1502.839844 215.710938 1502.839844 215.710938 C 1463.402344 245.714844 1461.003906 267.6875 1451.304688 323.96875 C 1433.535156 222.285156 1476.277344 23.882812 1487.34375 0.386719 C 1472.492188 15.179688 1431.339844 185.585938 1428.054688 271.132812 C 1428.304688 278.636719 1428.175781 315.523438 1428.007812 323.027344 C 1428.238281 313.007812 1426.648438 303.152344 1426.308594 293.195312 C 1425.578125 272.167969 1423.25 251.839844 1420.878906 231.140625 C 1418.953125 214.261719 1417.03125 196.902344 1412.839844 180.929688 C 1403.402344 144.984375 1383.238281 116.644531 1360.539062 99.707031 C 1396.644531 152.175781 1413.710938 249.050781 1405.335938 325.710938 " fill-opacity="1" fill-rule="nonzero"/></g><g clip-path="url(#6d50f0d5e1)"><path fill="#12302e" d="M 1390.574219 325.710938 C 1371.304688 230.097656 1337.929688 201.707031 1337.929688 201.707031 C 1354.683594 238.511719 1375.007812 297.476562 1377.902344 325.710938 L 1390.574219 325.710938 " fill-opacity="1" fill-rule="nonzero"/></g><g clip-path="url(#0868782376)"><path fill="#12302e" d="M 1361.617188 166.988281 C 1373.867188 201.671875 1389.628906 282.53125 1390.601562 325.710938 L 1405.308594 325.710938 C 1399.210938 257.800781 1394.292969 223.566406 1361.617188 166.988281 " fill-opacity="1" fill-rule="nonzero"/></g><g clip-path="url(#020c071839)"><path fill="#120e0f" d="M 1326.277344 325.710938 L 1341.777344 325.710938 C 1346.015625 267.128906 1352.238281 220.59375 1384.203125 181.84375 C 1333.945312 221.355469 1333.875 283.980469 1326.277344 325.710938 " fill-opacity="1" fill-rule="nonzero"/></g><g clip-path="url(#73ba8cab46)"><path fill="#053331" d="M 1311.796875 325.710938 L 1325.847656 325.710938 C 1323.058594 182.75 1347.078125 157.761719 1367.066406 123.949219 C 1307.171875 189.804688 1315.5625 230.75 1311.796875 325.710938 " fill-opacity="1" fill-rule="nonzero"/></g><g clip-path="url(#d87f3fff25)"><path fill="#053331" d="M 1253.320312 325.710938 L 1287.328125 325.710938 C 1287.660156 284.042969 1287.242188 90.851562 1228.015625 0.386719 C 1239.085938 23.882812 1280.285156 198.484375 1262.511719 300.164062 C 1252.921875 244.515625 1184.457031 141.867188 1163.304688 128.472656 C 1163.304688 128.472656 1258.304688 258.320312 1253.320312 325.710938 " fill-opacity="1" fill-rule="nonzero"/></g><g clip-path="url(#65780d973d)"><path fill="#120e0f" d="M 1311.769531 325.710938 C 1303.375 249.109375 1300.167969 182.183594 1354.820312 99.707031 C 1332.117188 116.644531 1311.277344 136.1875 1299.117188 186.585938 C 1292.988281 211.957031 1288.941406 298.65625 1287.660156 325.710938 L 1311.769531 325.710938 " fill-opacity="1" fill-rule="nonzero"/></g><g clip-path="url(#84ba4139e4)"><path fill="#120e0f" d="M 1463.925781 42.855469 C 1463.671875 43.125 1447.554688 60.265625 1430.601562 102.636719 C 1428.589844 107.664062 1426.566406 113.046875 1424.550781 118.804688 C 1422.8125 123.785156 1421.082031 129.039062 1419.378906 134.582031 C 1417.867188 139.488281 1416.382812 144.613281 1414.925781 149.972656 C 1413.148438 156.5 1411.421875 163.371094 1409.765625 170.589844 C 1406.722656 183.828125 1403.914062 198.25 1401.453125 213.921875 C 1399.460938 226.605469 1397.703125 240.113281 1396.242188 254.480469 C 1395.933594 257.496094 1395.644531 260.542969 1395.363281 263.632812 C 1393.625 282.804688 1392.417969 303.445312 1391.886719 325.632812 L 1391.886719 325.710938 L 1360.140625 325.710938 L 1360.144531 325.632812 C 1361.207031 314.246094 1361.632812 296.792969 1360.957031 275.453125 C 1360.941406 275.066406 1360.929688 274.675781 1360.917969 274.285156 L 1360.917969 274.28125 C 1360.859375 272.371094 1360.78125 270.4375 1360.699219 268.472656 C 1360.5625 265.15625 1360.398438 261.761719 1360.210938 258.296875 C 1359.710938 249.273438 1359.03125 239.746094 1358.136719 229.847656 C 1358.089844 229.394531 1358.050781 228.945312 1358.011719 228.492188 C 1357.539062 223.363281 1357.007812 218.140625 1356.417969 212.828125 C 1355.082031 200.839844 1353.441406 188.4375 1351.445312 175.828125 C 1350.992188 172.976562 1350.519531 170.113281 1350.03125 167.242188 C 1349.832031 166.085938 1349.636719 164.929688 1349.429688 163.769531 C 1349.023438 161.4375 1348.601562 159.101562 1348.167969 156.761719 C 1347.941406 155.539062 1347.710938 154.3125 1347.476562 153.085938 C 1347.222656 151.71875 1346.953125 150.351562 1346.679688 148.980469 C 1346.613281 148.617188 1346.539062 148.261719 1346.46875 147.902344 C 1345.578125 143.394531 1344.636719 138.886719 1343.640625 134.378906 C 1343.378906 133.179688 1343.113281 131.972656 1342.839844 130.769531 C 1342.21875 128.023438 1341.578125 125.277344 1340.917969 122.535156 C 1340.164062 119.367188 1339.378906 116.207031 1338.5625 113.050781 C 1334.460938 97.105469 1329.691406 81.359375 1324.164062 66.222656 C 1322.953125 62.90625 1321.710938 59.621094 1320.429688 56.378906 C 1318.9375 52.585938 1317.390625 48.839844 1315.792969 45.148438 C 1315.664062 44.847656 1315.535156 44.542969 1315.402344 44.246094 C 1314.148438 41.367188 1312.863281 38.527344 1311.546875 35.71875 C 1310.304688 33.054688 1309.023438 30.421875 1307.714844 27.820312 C 1306.503906 25.40625 1305.261719 23.019531 1303.996094 20.667969 C 1303.867188 20.421875 1303.734375 20.179688 1303.601562 19.933594 C 1303.488281 19.726562 1303.667969 19.507812 1303.8125 19.65625 C 1304.828125 20.691406 1305.835938 21.753906 1306.832031 22.84375 C 1307.863281 23.964844 1308.886719 25.121094 1309.898438 26.316406 C 1314.65625 31.90625 1319.195312 38.214844 1323.527344 45.515625 C 1324.757812 47.589844 1325.972656 49.746094 1327.175781 51.992188 C 1331.980469 60.976562 1336.527344 71.339844 1340.847656 83.496094 C 1341.675781 85.828125 1342.496094 88.230469 1343.3125 90.707031 C 1344.15625 93.269531 1344.988281 95.910156 1345.820312 98.632812 C 1346.464844 100.761719 1347.109375 102.9375 1347.746094 105.164062 C 1348.105469 106.441406 1348.472656 107.734375 1348.835938 109.046875 C 1350.394531 114.699219 1351.921875 120.648438 1353.421875 126.933594 C 1354.207031 130.226562 1354.980469 133.613281 1355.75 137.089844 C 1356.042969 138.425781 1356.335938 139.769531 1356.625 141.128906 C 1356.863281 142.230469 1357.101562 143.335938 1357.335938 144.457031 C 1358.320312 149.152344 1359.292969 154.015625 1360.25 159.054688 C 1360.542969 160.589844 1360.832031 162.132812 1361.125 163.699219 C 1361.339844 164.875 1361.558594 166.066406 1361.777344 167.265625 C 1361.796875 167.382812 1361.820312 167.5 1361.839844 167.621094 C 1363.074219 174.457031 1364.289062 181.59375 1365.480469 189.046875 C 1365.972656 192.113281 1366.457031 195.242188 1366.945312 198.417969 C 1367.042969 199.074219 1367.140625 199.730469 1367.242188 200.390625 C 1367.464844 201.859375 1367.6875 203.34375 1367.902344 204.839844 C 1367.953125 205.167969 1368.003906 205.5 1368.046875 205.828125 C 1368.355469 207.90625 1368.660156 210.003906 1368.960938 212.125 C 1370.046875 219.757812 1371.117188 227.691406 1372.167969 235.933594 C 1373.085938 243.121094 1373.992188 250.546875 1374.886719 258.214844 C 1375.082031 259.925781 1375.285156 261.652344 1375.476562 263.386719 L 1375.476562 263.390625 C 1375.824219 266.390625 1376.160156 269.421875 1376.5 272.492188 C 1376.621094 273.597656 1376.742188 274.699219 1376.863281 275.816406 C 1377.160156 278.527344 1377.453125 281.273438 1377.746094 284.050781 C 1379.128906 297.132812 1380.476562 310.863281 1381.800781 325.273438 C 1381.800781 325.273438 1381.246094 311.261719 1381.773438 289.367188 C 1381.992188 280.34375 1382.394531 269.980469 1383.09375 258.710938 C 1383.648438 249.761719 1384.398438 240.238281 1385.390625 230.359375 C 1385.746094 226.769531 1386.140625 223.136719 1386.570312 219.464844 C 1388.21875 205.273438 1390.398438 190.539062 1393.265625 175.835938 C 1395.144531 166.175781 1397.320312 156.542969 1399.835938 147.089844 C 1401.476562 140.925781 1403.265625 134.835938 1405.207031 128.878906 C 1406.511719 124.886719 1407.882812 120.949219 1409.324219 117.085938 C 1411.175781 112.144531 1413.148438 107.316406 1415.25 102.636719 C 1416.910156 98.941406 1418.640625 95.34375 1420.464844 91.847656 C 1431.546875 70.578125 1445.742188 53.164062 1463.925781 42.855469 " fill-opacity="1" fill-rule="nonzero"/></g><g clip-path="url(#da4cae3e67)"><path fill="#053331" d="M 1337.140625 325.710938 L 1359.773438 325.710938 C 1359.628906 323.484375 1359.296875 321.128906 1359.191406 319.292969 C 1358.726562 311.066406 1358.203125 302.851562 1357.609375 294.644531 C 1354.640625 253.746094 1349.757812 211.210938 1336.578125 174.832031 C 1326.90625 148.140625 1313.375 125.085938 1297.734375 106.324219 C 1286.839844 93.257812 1274.917969 82.105469 1262.347656 73.261719 C 1259.839844 71.5 1257.304688 69.832031 1254.734375 68.292969 C 1254.566406 68.191406 1254.492188 68.503906 1254.636719 68.671875 C 1331.515625 159.050781 1337.023438 292.199219 1337.140625 325.710938 " fill-opacity="1" fill-rule="nonzero"/></g><g clip-path="url(#5ef8168818)"><path fill="#12302e" d="M 1378.875 100.046875 C 1441.257812 138.363281 1433.902344 293.34375 1431.648438 325.710938 L 1453.851562 325.710938 C 1454.46875 124.171875 1528.242188 136.960938 1528.242188 136.960938 C 1449.382812 77.34375 1442.710938 297.191406 1442.710938 297.191406 C 1443.316406 82.929688 1374.894531 97.597656 1378.875 100.046875 " fill-opacity="1" fill-rule="nonzero"/></g><g clip-path="url(#54a39ba00d)"><path fill="#12302e" d="M 1290.382812 325.710938 C 1304.476562 215.160156 1372.886719 150.933594 1372.886719 150.933594 C 1297.828125 193.269531 1281.984375 301.199219 1279.316406 325.710938 L 1290.382812 325.710938 " fill-opacity="1" fill-rule="nonzero"/></g><g clip-path="url(#fed692fa9e)"><path fill="#12302e" d="M 1248.667969 325.710938 L 1260.46875 325.710938 C 1233.289062 144.117188 1159.050781 162.191406 1159.050781 162.191406 C 1237.398438 200.117188 1247.421875 297.339844 1248.667969 325.710938 " fill-opacity="1" fill-rule="nonzero"/></g><g clip-path="url(#9800f0cab2)"><path fill="#12302e" d="M 1261.820312 325.710938 L 1278.945312 325.710938 C 1280.59375 213.496094 1237.914062 96.980469 1237.914062 96.980469 C 1267.714844 254.695312 1263.902344 311.289062 1261.820312 325.710938 " fill-opacity="1" fill-rule="nonzero"/></g><g clip-path="url(#e1febdc69b)"><path fill="#12302e" d="M 1431.902344 166.988281 C 1444.148438 201.671875 1459.914062 282.53125 1460.886719 325.710938 L 1475.589844 325.710938 C 1469.496094 257.800781 1464.574219 223.566406 1431.902344 166.988281 " fill-opacity="1" fill-rule="nonzero"/></g><g clip-path="url(#8f1b4fbe97)"><path fill="#12302e" d="M 1475.617188 325.710938 L 1533.761719 325.710938 C 1538.199219 249.101562 1573.125 215.710938 1573.125 215.710938 C 1533.683594 245.714844 1531.289062 267.6875 1521.589844 323.96875 C 1503.820312 222.285156 1546.5625 23.882812 1557.628906 0.386719 C 1542.78125 15.179688 1501.625 185.585938 1498.34375 271.132812 C 1498.59375 278.636719 1498.464844 315.523438 1498.289062 323.027344 C 1498.519531 313.007812 1496.933594 303.152344 1496.589844 293.195312 C 1495.863281 272.167969 1493.535156 251.839844 1491.167969 231.140625 C 1489.234375 214.261719 1487.316406 196.902344 1483.125 180.929688 C 1473.691406 144.984375 1453.527344 116.644531 1430.824219 99.707031 C 1466.925781 152.175781 1483.992188 249.050781 1475.617188 325.710938 " fill-opacity="1" fill-rule="nonzero"/></g><g clip-path="url(#912f7872bd)"><path fill="#12302e" d="M 1460.863281 325.710938 C 1441.589844 230.097656 1408.210938 201.707031 1408.210938 201.707031 C 1424.96875 238.511719 1445.292969 297.476562 1448.183594 325.710938 L 1460.863281 325.710938 " fill-opacity="1" fill-rule="nonzero"/></g><g clip-path="url(#a91011b73f)"><path fill="#120e0f" d="M 1407.671875 325.710938 C 1404.003906 265 1488.523438 149.484375 1488.523438 149.484375 C 1469.53125 161.507812 1408.078125 253.640625 1399.472656 303.585938 C 1383.519531 212.320312 1420.5 55.605469 1430.433594 34.515625 C 1377.648438 115.144531 1376.90625 286.683594 1377.195312 325.710938 L 1407.671875 325.710938 " fill-opacity="1" fill-rule="nonzero"/></g><g clip-path="url(#77fd709662)"><path fill="#120e0f" d="M 1355.347656 325.710938 L 1376.863281 325.710938 C 1375.671875 300.554688 1372.054688 224.171875 1366.617188 201.644531 C 1355.699219 156.410156 1336.996094 138.867188 1316.621094 123.664062 C 1365.480469 197.402344 1362.816406 257.289062 1355.347656 325.710938 " fill-opacity="1" fill-rule="nonzero"/></g><g clip-path="url(#30c37f0875)"><path fill="#120e0f" d="M 1328.265625 325.710938 L 1342.09375 325.710938 C 1335.417969 288.253906 1335.03125 232.597656 1290.246094 197.386719 C 1318.789062 231.988281 1324.464844 273.511719 1328.265625 325.710938 " fill-opacity="1" fill-rule="nonzero"/></g><g clip-path="url(#7d331827e0)"><path fill="#120e0f" d="M 1342.636719 325.710938 L 1355.203125 325.710938 C 1351.90625 241.050781 1359.214844 204.347656 1305.628906 145.425781 C 1323.527344 175.707031 1345.035156 198.105469 1342.636719 325.710938 " fill-opacity="1" fill-rule="nonzero"/></g><g clip-path="url(#952d166fd8)"><path fill="#120e0f" d="M 1407.421875 325.710938 L 1430.058594 325.710938 C 1429.914062 323.484375 1429.578125 321.128906 1429.472656 319.292969 C 1429.011719 311.066406 1428.488281 302.851562 1427.890625 294.644531 C 1424.925781 253.746094 1420.039062 211.210938 1406.863281 174.832031 C 1397.191406 148.140625 1383.660156 125.085938 1368.019531 106.324219 C 1357.125 93.257812 1345.203125 82.105469 1332.632812 73.261719 C 1330.125 71.5 1327.589844 69.832031 1325.023438 68.292969 C 1324.851562 68.191406 1324.78125 68.503906 1324.925781 68.671875 C 1401.800781 159.050781 1407.304688 292.199219 1407.421875 325.710938 " fill-opacity="1" fill-rule="nonzero"/></g><g clip-path="url(#e24760cdb2)"><path fill="#12302e" d="M 1430.425781 325.710938 L 1462.171875 325.710938 C 1467.246094 113.308594 1534.210938 42.847656 1534.210938 42.847656 C 1442.925781 94.621094 1452.085938 325.273438 1452.085938 325.273438 C 1433.570312 123.792969 1409.785156 56.03125 1374.097656 19.65625 C 1373.953125 19.507812 1373.777344 19.730469 1373.882812 19.933594 C 1428 119.828125 1434.953125 277.480469 1430.425781 325.710938 " fill-opacity="1" fill-rule="nonzero"/></g><g clip-path="url(#a6026cf0dc)"><path fill="#12302e" d="M 1449.160156 100.046875 C 1511.539062 138.363281 1504.183594 293.34375 1501.929688 325.710938 L 1524.136719 325.710938 C 1524.75 124.171875 1598.527344 136.960938 1598.527344 136.960938 C 1519.664062 77.34375 1512.996094 297.191406 1512.996094 297.191406 C 1513.597656 82.929688 1445.175781 97.597656 1449.160156 100.046875 " fill-opacity="1" fill-rule="nonzero"/></g><g clip-path="url(#b541884bb2)"><path fill="#12302e" d="M 1360.667969 325.710938 C 1374.761719 215.160156 1443.171875 150.933594 1443.171875 150.933594 C 1368.109375 193.269531 1352.265625 301.199219 1349.597656 325.710938 L 1360.667969 325.710938 " fill-opacity="1" fill-rule="nonzero"/></g><g clip-path="url(#dbdb2faefc)"><path fill="#053331" d="M 1318.949219 325.710938 L 1330.75 325.710938 C 1303.578125 144.117188 1229.335938 162.191406 1229.335938 162.191406 C 1307.679688 200.117188 1317.707031 297.339844 1318.949219 325.710938 " fill-opacity="1" fill-rule="nonzero"/></g><g clip-path="url(#796f8a5241)"><path fill="#12302e" d="M 1332.105469 325.710938 L 1349.226562 325.710938 C 1350.878906 213.496094 1308.195312 96.980469 1308.195312 96.980469 C 1338 254.695312 1334.1875 311.289062 1332.105469 325.710938 " fill-opacity="1" fill-rule="nonzero"/></g><g clip-path="url(#f0e7e12b70)"><path fill="#12302e" d="M 1621.78125 325.710938 L 1679.921875 325.710938 C 1684.363281 249.101562 1719.285156 215.710938 1719.285156 215.710938 C 1679.847656 245.714844 1677.453125 267.6875 1667.753906 323.96875 C 1649.980469 222.285156 1692.726562 23.882812 1703.792969 0.386719 C 1688.941406 15.179688 1647.789062 185.585938 1644.503906 271.132812 C 1644.753906 278.636719 1644.625 315.523438 1644.453125 323.027344 C 1644.683594 313.007812 1643.097656 303.152344 1642.753906 293.195312 C 1642.027344 272.167969 1639.699219 251.839844 1637.328125 231.140625 C 1635.398438 214.261719 1633.480469 196.902344 1629.289062 180.929688 C 1619.851562 144.984375 1599.6875 116.644531 1576.988281 99.707031 C 1613.089844 152.175781 1630.15625 249.050781 1621.78125 325.710938 " fill-opacity="1" fill-rule="nonzero"/></g><g clip-path="url(#022395110a)"><path fill="#12302e" d="M 1607.023438 325.710938 C 1587.753906 230.097656 1554.375 201.707031 1554.375 201.707031 C 1571.132812 238.511719 1591.457031 297.476562 1594.347656 325.710938 L 1607.023438 325.710938 " fill-opacity="1" fill-rule="nonzero"/></g><g clip-path="url(#5fbf498f21)"><path fill="#12302e" d="M 1578.066406 166.988281 C 1590.3125 201.671875 1606.078125 282.53125 1607.050781 325.710938 L 1621.753906 325.710938 C 1615.660156 257.800781 1610.738281 223.566406 1578.066406 166.988281 " fill-opacity="1" fill-rule="nonzero"/></g><g clip-path="url(#4ff34fd73a)"><path fill="#120e0f" d="M 1542.722656 325.710938 L 1558.226562 325.710938 C 1562.464844 267.128906 1568.683594 220.59375 1600.648438 181.84375 C 1550.394531 221.355469 1550.320312 283.980469 1542.722656 325.710938 " fill-opacity="1" fill-rule="nonzero"/></g><g clip-path="url(#470274d5a1)"><path fill="#053331" d="M 1528.246094 325.710938 L 1542.296875 325.710938 C 1539.507812 182.75 1563.527344 157.761719 1583.511719 123.949219 C 1523.621094 189.804688 1532.011719 230.75 1528.246094 325.710938 " fill-opacity="1" fill-rule="nonzero"/></g><g clip-path="url(#268025bbcd)"><path fill="#053331" d="M 1469.769531 325.710938 L 1503.773438 325.710938 C 1504.109375 284.042969 1503.691406 90.851562 1444.464844 0.386719 C 1455.53125 23.882812 1496.730469 198.484375 1478.960938 300.164062 C 1469.371094 244.515625 1400.902344 141.867188 1379.75 128.472656 C 1379.75 128.472656 1474.753906 258.320312 1469.769531 325.710938 " fill-opacity="1" fill-rule="nonzero"/></g><g clip-path="url(#fb76519756)"><path fill="#120e0f" d="M 1528.21875 325.710938 C 1519.824219 249.109375 1516.613281 182.183594 1571.269531 99.707031 C 1548.566406 116.644531 1527.726562 136.1875 1515.5625 186.585938 C 1509.433594 211.957031 1505.390625 298.65625 1504.109375 325.710938 L 1528.21875 325.710938 " fill-opacity="1" fill-rule="nonzero"/></g><g clip-path="url(#80a389841e)"><path fill="#120e0f" d="M 1680.371094 42.855469 C 1680.117188 43.125 1664 60.265625 1647.046875 102.636719 C 1645.039062 107.664062 1643.011719 113.046875 1641 118.804688 C 1639.261719 123.785156 1637.527344 129.039062 1635.824219 134.582031 C 1634.316406 139.488281 1632.832031 144.613281 1631.375 149.972656 C 1629.597656 156.5 1627.871094 163.371094 1626.210938 170.589844 C 1623.171875 183.828125 1620.363281 198.25 1617.902344 213.921875 C 1615.910156 226.605469 1614.148438 240.113281 1612.691406 254.480469 C 1612.382812 257.496094 1612.089844 260.542969 1611.808594 263.632812 C 1610.074219 282.804688 1608.867188 303.445312 1608.335938 325.632812 L 1608.335938 325.710938 L 1576.589844 325.710938 L 1576.59375 325.632812 C 1577.65625 314.246094 1578.082031 296.792969 1577.40625 275.453125 C 1577.390625 275.066406 1577.378906 274.675781 1577.367188 274.285156 L 1577.367188 274.28125 C 1577.304688 272.371094 1577.230469 270.4375 1577.148438 268.472656 C 1577.011719 265.15625 1576.847656 261.761719 1576.65625 258.296875 C 1576.15625 249.273438 1575.476562 239.746094 1574.582031 229.847656 C 1574.539062 229.394531 1574.5 228.945312 1574.457031 228.492188 C 1573.988281 223.363281 1573.457031 218.140625 1572.863281 212.828125 C 1571.53125 200.839844 1569.890625 188.4375 1567.890625 175.828125 C 1567.441406 172.976562 1566.964844 170.113281 1566.480469 167.242188 C 1566.28125 166.085938 1566.082031 164.929688 1565.878906 163.769531 C 1565.472656 161.4375 1565.050781 159.101562 1564.613281 156.761719 C 1564.390625 155.539062 1564.160156 154.3125 1563.925781 153.085938 C 1563.667969 151.71875 1563.402344 150.351562 1563.128906 148.980469 C 1563.058594 148.617188 1562.988281 148.261719 1562.914062 147.902344 C 1562.027344 143.394531 1561.082031 138.886719 1560.089844 134.378906 C 1559.828125 133.179688 1559.5625 131.972656 1559.289062 130.769531 C 1558.667969 128.023438 1558.027344 125.277344 1557.367188 122.535156 C 1556.609375 119.367188 1555.824219 116.207031 1555.011719 113.050781 C 1550.910156 97.105469 1546.136719 81.359375 1540.609375 66.222656 C 1539.402344 62.90625 1538.15625 59.621094 1536.878906 56.378906 C 1535.382812 52.585938 1533.839844 48.839844 1532.238281 45.148438 C 1532.109375 44.847656 1531.980469 44.542969 1531.847656 44.246094 C 1530.597656 41.367188 1529.3125 38.527344 1527.996094 35.71875 C 1526.75 33.054688 1525.472656 30.421875 1524.164062 27.820312 C 1522.949219 25.40625 1521.710938 23.019531 1520.441406 20.667969 C 1520.3125 20.421875 1520.179688 20.179688 1520.046875 19.933594 C 1519.933594 19.726562 1520.117188 19.507812 1520.261719 19.65625 C 1521.277344 20.691406 1522.28125 21.753906 1523.28125 22.84375 C 1524.3125 23.964844 1525.335938 25.121094 1526.34375 26.316406 C 1531.105469 31.90625 1535.640625 38.214844 1539.972656 45.515625 C 1541.207031 47.589844 1542.421875 49.746094 1543.621094 51.992188 C 1548.429688 60.976562 1552.972656 71.339844 1557.292969 83.496094 C 1558.125 85.828125 1558.945312 88.230469 1559.757812 90.707031 C 1560.605469 93.269531 1561.4375 95.910156 1562.265625 98.632812 C 1562.910156 100.761719 1563.554688 102.9375 1564.191406 105.164062 C 1564.554688 106.441406 1564.921875 107.734375 1565.28125 109.046875 C 1566.839844 114.699219 1568.371094 120.648438 1569.867188 126.933594 C 1570.652344 130.226562 1571.425781 133.613281 1572.195312 137.089844 C 1572.488281 138.425781 1572.785156 139.769531 1573.074219 141.128906 C 1573.3125 142.230469 1573.546875 143.335938 1573.78125 144.457031 C 1574.769531 149.152344 1575.738281 154.015625 1576.695312 159.054688 C 1576.992188 160.589844 1577.28125 162.132812 1577.570312 163.699219 C 1577.789062 164.875 1578.003906 166.066406 1578.222656 167.265625 C 1578.242188 167.382812 1578.265625 167.5 1578.289062 167.621094 C 1579.523438 174.457031 1580.734375 181.59375 1581.925781 189.046875 C 1582.417969 192.113281 1582.90625 195.242188 1583.394531 198.417969 C 1583.488281 199.074219 1583.589844 199.730469 1583.691406 200.390625 C 1583.910156 201.859375 1584.132812 203.34375 1584.351562 204.839844 C 1584.398438 205.167969 1584.453125 205.5 1584.496094 205.828125 C 1584.800781 207.90625 1585.109375 210.003906 1585.410156 212.125 C 1586.492188 219.757812 1587.5625 227.691406 1588.613281 235.933594 C 1589.53125 243.121094 1590.4375 250.546875 1591.332031 258.214844 C 1591.53125 259.925781 1591.730469 261.652344 1591.925781 263.386719 L 1591.925781 263.390625 C 1592.269531 266.390625 1592.609375 269.421875 1592.945312 272.492188 C 1593.066406 273.597656 1593.1875 274.699219 1593.308594 275.816406 C 1593.605469 278.527344 1593.902344 281.273438 1594.195312 284.050781 C 1595.574219 297.132812 1596.925781 310.863281 1598.25 325.273438 C 1598.25 325.273438 1597.695312 311.261719 1598.222656 289.367188 C 1598.4375 280.34375 1598.839844 269.980469 1599.542969 258.710938 C 1600.097656 249.761719 1600.847656 240.238281 1601.835938 230.359375 C 1602.195312 226.769531 1602.589844 223.136719 1603.015625 219.464844 C 1604.667969 205.273438 1606.84375 190.539062 1609.710938 175.835938 C 1611.59375 166.175781 1613.765625 156.542969 1616.28125 147.089844 C 1617.925781 140.925781 1619.714844 134.835938 1621.652344 128.878906 C 1622.957031 124.886719 1624.332031 120.949219 1625.773438 117.085938 C 1627.625 112.144531 1629.597656 107.316406 1631.699219 102.636719 C 1633.359375 98.941406 1635.089844 95.34375 1636.914062 91.847656 C 1647.992188 70.578125 1662.191406 53.164062 1680.371094 42.855469 " fill-opacity="1" fill-rule="nonzero"/></g><g clip-path="url(#a0dd250c1e)"><path fill="#053331" d="M 1553.585938 325.710938 L 1576.222656 325.710938 C 1576.078125 323.484375 1575.742188 321.128906 1575.636719 319.292969 C 1575.175781 311.066406 1574.652344 302.851562 1574.054688 294.644531 C 1571.089844 253.746094 1566.203125 211.210938 1553.027344 174.832031 C 1543.351562 148.140625 1529.824219 125.085938 1514.183594 106.324219 C 1503.285156 93.257812 1491.367188 82.105469 1478.796875 73.261719 C 1476.289062 71.5 1473.75 69.832031 1471.183594 68.292969 C 1471.011719 68.191406 1470.941406 68.503906 1471.085938 68.671875 C 1547.960938 159.050781 1553.46875 292.199219 1553.585938 325.710938 " fill-opacity="1" fill-rule="nonzero"/></g><g clip-path="url(#54269d5889)"><path fill="#12302e" d="M 1595.324219 100.046875 C 1657.703125 138.363281 1650.347656 293.34375 1648.09375 325.710938 L 1670.296875 325.710938 C 1670.914062 124.171875 1744.691406 136.960938 1744.691406 136.960938 C 1665.828125 77.34375 1659.15625 297.191406 1659.15625 297.191406 C 1659.761719 82.929688 1591.339844 97.597656 1595.324219 100.046875 " fill-opacity="1" fill-rule="nonzero"/></g><g clip-path="url(#3352734906)"><path fill="#12302e" d="M 1506.832031 325.710938 C 1520.925781 215.160156 1589.335938 150.933594 1589.335938 150.933594 C 1514.273438 193.269531 1498.429688 301.199219 1495.761719 325.710938 L 1506.832031 325.710938 " fill-opacity="1" fill-rule="nonzero"/></g><g clip-path="url(#ff8bbe4886)"><path fill="#12302e" d="M 1465.113281 325.710938 L 1476.914062 325.710938 C 1449.738281 144.117188 1375.5 162.191406 1375.5 162.191406 C 1453.84375 200.117188 1463.871094 297.339844 1465.113281 325.710938 " fill-opacity="1" fill-rule="nonzero"/></g><g clip-path="url(#d2216e5884)"><path fill="#12302e" d="M 1478.269531 325.710938 L 1495.390625 325.710938 C 1497.042969 213.496094 1454.359375 96.980469 1454.359375 96.980469 C 1484.164062 254.695312 1480.351562 311.289062 1478.269531 325.710938 " fill-opacity="1" fill-rule="nonzero"/></g></svg>